<svg width="96" height="98" viewBox="0 0 96 98" fill="none" xmlns="http://www.w3.org/2000/svg">
<g style="mix-blend-mode:luminosity" clip-path="url(#clip0_2743_5685)">
<path d="M47.852 72C47.102 72 46.352 71.85 45.677 71.4L20.852 57.6C19.577 56.925 18.752 55.65 18.527 54.15L14.027 15.45C13.802 13.35 15.002 11.4 16.952 10.725L46.352 0.225C46.877 0.075 47.327 0 47.852 0C48.377 0 48.902 0.075 49.352 0.225L78.677 10.65C80.627 11.325 81.902 13.35 81.602 15.375L77.102 54.15C76.952 55.575 76.052 56.85 74.777 57.6L49.952 71.4C49.277 71.775 48.527 72 47.777 72H47.852Z" fill="#F8F9FA"/>
<path d="M47.8406 4.5L18.5156 14.925L23.0156 53.7L47.8406 67.5L72.6656 53.7L77.1656 14.925L47.8406 4.5Z" fill="#DD0031"/>
<path d="M47.8359 4.5V11.475V43.35V67.5L72.6609 53.7L77.1609 14.925L47.8359 4.5Z" fill="#C3002F"/>
<path d="M47.8469 11.4805L29.5469 52.5805H36.3719L40.0469 43.3555H55.5719L59.2469 52.5805H66.0719L47.8469 11.4805ZM53.1719 37.7305H42.4469L47.7719 24.8305L53.0969 37.7305H53.1719Z" fill="#F8F9FA"/>
</g>
<path d="M15.9238 93L20.0998 81.12H22.5118L26.6878 93H24.9058L21.4138 82.506H21.1978L17.7058 93H15.9238ZM17.9038 90.336V89.076H24.9058V90.336H17.9038ZM28.6007 93V87.222V83.694H30.0767L29.9147 86.646H30.2207C30.3887 85.914 30.6107 85.314 30.8867 84.846C31.1747 84.378 31.5347 84.03 31.9667 83.802C32.3987 83.574 32.9027 83.46 33.4787 83.46C34.5107 83.46 35.2907 83.832 35.8187 84.576C36.3587 85.308 36.6287 86.406 36.6287 87.87V93H34.9727V88.014C34.9727 86.958 34.8047 86.178 34.4687 85.674C34.1447 85.17 33.6647 84.918 33.0287 84.918C32.4527 84.918 31.9607 85.098 31.5527 85.458C31.1567 85.818 30.8447 86.292 30.6167 86.88C30.3887 87.468 30.2627 88.104 30.2387 88.788V93H28.6007ZM42.7974 96.15C41.8134 96.15 41.0034 96.072 40.3674 95.916C39.7434 95.772 39.2814 95.544 38.9814 95.232C38.6814 94.932 38.5314 94.554 38.5314 94.098C38.5314 93.546 38.7474 93.09 39.1794 92.73C39.6114 92.37 40.2654 92.13 41.1414 92.01V91.686C40.5054 91.686 40.0254 91.608 39.7014 91.452C39.3774 91.296 39.2154 91.062 39.2154 90.75C39.2154 90.426 39.3774 90.156 39.7014 89.94C40.0254 89.712 40.5534 89.502 41.2854 89.31V88.968C40.5534 88.956 39.9954 88.74 39.6114 88.32C39.2274 87.888 39.0354 87.33 39.0354 86.646C39.0354 86.034 39.1974 85.506 39.5214 85.062C39.8574 84.606 40.3374 84.258 40.9614 84.018C41.5974 83.766 42.3534 83.64 43.2294 83.64H47.6214V85.026L44.7414 84.576V84.918C45.4374 85.062 45.9714 85.308 46.3434 85.656C46.7154 85.992 46.9014 86.448 46.9014 87.024C46.9014 87.54 46.7514 87.99 46.4514 88.374C46.1514 88.758 45.7074 89.058 45.1194 89.274C44.5434 89.478 43.8294 89.58 42.9774 89.58C42.8094 89.58 42.6294 89.574 42.4374 89.562C42.2574 89.538 42.0174 89.502 41.7174 89.454C41.3934 89.658 41.1294 89.844 40.9254 90.012C40.7334 90.18 40.6374 90.33 40.6374 90.462C40.6374 90.594 40.7274 90.702 40.9074 90.786C41.0994 90.858 41.3274 90.906 41.5914 90.93C41.8554 90.954 42.1014 90.966 42.3294 90.966H44.4354C44.6754 90.966 44.9754 90.99 45.3354 91.038C45.7074 91.086 46.0734 91.188 46.4334 91.344C46.8054 91.5 47.1174 91.74 47.3694 92.064C47.6214 92.388 47.7474 92.838 47.7474 93.414C47.7474 94.062 47.5554 94.59 47.1714 94.998C46.7874 95.406 46.2294 95.7 45.4974 95.88C44.7654 96.06 43.8654 96.15 42.7974 96.15ZM42.8334 94.8C43.6374 94.8 44.2854 94.746 44.7774 94.638C45.2814 94.542 45.6474 94.386 45.8754 94.17C46.1154 93.954 46.2354 93.678 46.2354 93.342C46.2354 93.03 46.1514 92.79 45.9834 92.622C45.8274 92.442 45.6294 92.316 45.3894 92.244C45.1494 92.172 44.9094 92.13 44.6694 92.118C44.4294 92.094 44.2254 92.082 44.0574 92.082H41.9514C41.2554 92.238 40.7754 92.454 40.5114 92.73C40.2474 93.006 40.1154 93.3 40.1154 93.612C40.1154 93.948 40.2354 94.2 40.4754 94.368C40.7154 94.536 41.0394 94.65 41.4474 94.71C41.8674 94.77 42.3294 94.8 42.8334 94.8ZM43.0494 88.518C43.8054 88.518 44.3754 88.362 44.7594 88.05C45.1434 87.738 45.3354 87.318 45.3354 86.79C45.3354 86.226 45.1374 85.764 44.7414 85.404C44.3574 85.032 43.7754 84.846 42.9954 84.846C42.2394 84.846 41.6574 85.02 41.2494 85.368C40.8534 85.716 40.6554 86.166 40.6554 86.718C40.6554 87.078 40.7454 87.396 40.9254 87.672C41.1174 87.936 41.3874 88.146 41.7354 88.302C42.0954 88.446 42.5334 88.518 43.0494 88.518ZM52.7879 93.234C51.7559 93.234 50.9759 92.874 50.4479 92.154C49.9199 91.434 49.6559 90.36 49.6559 88.932V83.694H51.3119V88.788C51.3119 89.796 51.4679 90.546 51.7799 91.038C52.0919 91.53 52.5839 91.776 53.2559 91.776C53.6279 91.776 53.9579 91.686 54.2459 91.506C54.5459 91.326 54.8099 91.068 55.0379 90.732C55.2659 90.396 55.4519 90 55.5959 89.544C55.7399 89.076 55.8359 88.572 55.8839 88.032V83.694H57.5219V89.112V93H56.0639L56.2079 90.012H55.9379C55.7819 90.756 55.5599 91.368 55.2719 91.848C54.9959 92.316 54.6479 92.664 54.2279 92.892C53.8079 93.12 53.3279 93.234 52.7879 93.234ZM60.3644 93V80.4H62.0024V93H60.3644ZM66.9712 93.234C66.4672 93.234 66.0112 93.138 65.6032 92.946C65.1952 92.742 64.8712 92.448 64.6312 92.064C64.3912 91.668 64.2712 91.17 64.2712 90.57C64.2712 90.126 64.3492 89.736 64.5052 89.4C64.6732 89.064 64.9252 88.776 65.2612 88.536C65.6092 88.296 66.0532 88.098 66.5932 87.942C67.1332 87.786 67.7932 87.654 68.5732 87.546C69.0172 87.486 69.3772 87.426 69.6532 87.366C69.9412 87.306 70.1512 87.21 70.2832 87.078C70.4152 86.934 70.4812 86.724 70.4812 86.448C70.4812 85.992 70.3252 85.608 70.0132 85.296C69.7012 84.984 69.2092 84.828 68.5372 84.828C68.1892 84.828 67.8352 84.888 67.4752 85.008C67.1152 85.128 66.7972 85.332 66.5212 85.62C66.2572 85.896 66.0892 86.286 66.0172 86.79L64.5052 86.286C64.6012 85.854 64.7572 85.464 64.9732 85.116C65.2012 84.768 65.4892 84.474 65.8372 84.234C66.1852 83.982 66.5872 83.79 67.0432 83.658C67.5112 83.526 68.0272 83.46 68.5912 83.46C69.3712 83.46 70.0192 83.592 70.5352 83.856C71.0632 84.12 71.4532 84.528 71.7052 85.08C71.9692 85.62 72.1012 86.316 72.1012 87.168V89.238C72.1012 89.61 72.1072 90.018 72.1192 90.462C72.1432 90.894 72.1732 91.332 72.2092 91.776C72.2452 92.208 72.2812 92.616 72.3172 93H70.8052C70.7692 92.616 70.7332 92.232 70.6972 91.848C70.6732 91.464 70.6552 91.08 70.6432 90.696H70.4092C70.2292 91.14 69.9892 91.554 69.6892 91.938C69.3892 92.322 69.0112 92.634 68.5552 92.874C68.1112 93.114 67.5832 93.234 66.9712 93.234ZM67.4572 91.902C67.7212 91.902 67.9852 91.86 68.2492 91.776C68.5252 91.692 68.7952 91.554 69.0592 91.362C69.3352 91.17 69.5932 90.924 69.8332 90.624C70.0852 90.324 70.3072 89.964 70.4992 89.544V87.744L70.9672 87.834C70.7752 88.026 70.5172 88.17 70.1932 88.266C69.8812 88.362 69.5332 88.44 69.1492 88.5C68.7652 88.56 68.3812 88.626 67.9972 88.698C67.6132 88.758 67.2592 88.854 66.9352 88.986C66.6232 89.106 66.3712 89.28 66.1792 89.508C65.9872 89.736 65.8912 90.048 65.8912 90.444C65.8912 90.924 66.0352 91.29 66.3232 91.542C66.6112 91.782 66.9892 91.902 67.4572 91.902ZM74.8488 93V87.96V83.694H76.3248L76.1808 86.934H76.4868C76.5948 86.226 76.7628 85.614 76.9908 85.098C77.2188 84.582 77.5188 84.18 77.8908 83.892C78.2748 83.604 78.7488 83.46 79.3128 83.46C79.4328 83.46 79.5708 83.472 79.7268 83.496C79.8828 83.508 80.0628 83.55 80.2668 83.622L80.1768 85.332C79.9968 85.26 79.8168 85.212 79.6368 85.188C79.4568 85.152 79.2828 85.134 79.1148 85.134C78.6468 85.134 78.2388 85.284 77.8908 85.584C77.5548 85.884 77.2728 86.292 77.0448 86.808C76.8168 87.312 76.6308 87.882 76.4868 88.518V93H74.8488Z" fill="#F8F9FA"/>
<defs>
<clipPath id="clip0_2743_5685">
<rect width="72" height="72" fill="white" transform="translate(12)"/>
</clipPath>
</defs>
</svg>
