<svg width="96" height="98" viewBox="0 0 96 98" fill="none" xmlns="http://www.w3.org/2000/svg">
<g style="mix-blend-mode:luminosity" clip-path="url(#clip0_2743_5679)">
<g clip-path="url(#clip1_2743_5679)">
<path d="M79.5 0H16.5C14.0147 0 12 2.01472 12 4.5V67.5C12 69.9853 14.0147 72 16.5 72H79.5C81.9853 72 84 69.9853 84 67.5V4.5C84 2.01472 81.9853 0 79.5 0Z" fill="#F8F9FA"/>
<path d="M79.5 4.5H16.5V67.5H79.5V4.5Z" fill="#F7DF1E"/>
<path d="M58.7875 53.7023C60.0625 55.8023 61.7125 57.3023 64.6375 57.3023C67.5625 57.3023 68.6875 56.1023 68.6875 54.3773C68.6875 52.6523 67.1125 51.6023 64.4125 50.4773L62.9125 49.8773C58.6375 48.0773 55.7875 45.7523 55.7875 40.9523C55.7875 36.1523 59.1625 33.1523 64.4875 33.1523C69.8125 33.1523 70.9375 34.4273 72.8875 37.8773L68.3125 40.8023C67.2625 39.0023 66.2125 38.2523 64.4875 38.2523C62.7625 38.2523 61.6375 39.3773 61.6375 40.8023C61.6375 42.2273 62.7625 43.2773 65.3125 44.4023L66.8125 45.0023C71.8375 47.1773 74.6875 49.3523 74.6875 54.3023C74.6875 59.2523 70.4875 62.5523 64.8625 62.5523C59.2375 62.5523 55.7875 59.9273 54.0625 56.4773L58.8625 53.7023H58.7875ZM37.8625 54.2273C38.7625 55.8773 39.6625 57.3023 41.6875 57.3023C43.7125 57.3023 44.8375 56.5523 44.8375 53.5523V33.4523H50.7625V53.6273C50.7625 59.7773 47.1625 62.5523 41.9125 62.5523C36.6625 62.5523 34.4125 60.0773 33.0625 57.1523L37.8625 54.2273Z" fill="#F8F9FA"/>
</g>
</g>
<path d="M5.39154 93.162L5.13954 91.596C5.27154 91.62 5.39154 91.632 5.49954 91.632C5.60754 91.632 5.70354 91.632 5.78754 91.632C6.43554 91.632 6.92154 91.53 7.24554 91.326C7.58154 91.122 7.80954 90.816 7.92954 90.408C8.04954 89.988 8.10954 89.472 8.10954 88.86V81.12H9.74754V88.878C9.74754 89.742 9.63354 90.498 9.40554 91.146C9.18954 91.794 8.81154 92.298 8.27154 92.658C7.73154 93.006 6.97554 93.18 6.00354 93.18C5.93154 93.18 5.84754 93.18 5.75154 93.18C5.65554 93.18 5.53554 93.174 5.39154 93.162ZM14.7642 93.234C14.2602 93.234 13.8042 93.138 13.3962 92.946C12.9882 92.742 12.6642 92.448 12.4242 92.064C12.1842 91.668 12.0642 91.17 12.0642 90.57C12.0642 90.126 12.1422 89.736 12.2982 89.4C12.4662 89.064 12.7182 88.776 13.0542 88.536C13.4022 88.296 13.8462 88.098 14.3862 87.942C14.9262 87.786 15.5862 87.654 16.3662 87.546C16.8102 87.486 17.1702 87.426 17.4462 87.366C17.7342 87.306 17.9442 87.21 18.0762 87.078C18.2082 86.934 18.2742 86.724 18.2742 86.448C18.2742 85.992 18.1182 85.608 17.8062 85.296C17.4942 84.984 17.0022 84.828 16.3302 84.828C15.9822 84.828 15.6282 84.888 15.2682 85.008C14.9082 85.128 14.5902 85.332 14.3142 85.62C14.0502 85.896 13.8822 86.286 13.8102 86.79L12.2982 86.286C12.3942 85.854 12.5502 85.464 12.7662 85.116C12.9942 84.768 13.2822 84.474 13.6302 84.234C13.9782 83.982 14.3802 83.79 14.8362 83.658C15.3042 83.526 15.8202 83.46 16.3842 83.46C17.1642 83.46 17.8122 83.592 18.3282 83.856C18.8562 84.12 19.2462 84.528 19.4982 85.08C19.7622 85.62 19.8942 86.316 19.8942 87.168V89.238C19.8942 89.61 19.9002 90.018 19.9122 90.462C19.9362 90.894 19.9662 91.332 20.0022 91.776C20.0382 92.208 20.0742 92.616 20.1102 93H18.5982C18.5622 92.616 18.5262 92.232 18.4902 91.848C18.4662 91.464 18.4482 91.08 18.4362 90.696H18.2022C18.0222 91.14 17.7822 91.554 17.4822 91.938C17.1822 92.322 16.8042 92.634 16.3482 92.874C15.9042 93.114 15.3762 93.234 14.7642 93.234ZM15.2502 91.902C15.5142 91.902 15.7782 91.86 16.0422 91.776C16.3182 91.692 16.5882 91.554 16.8522 91.362C17.1282 91.17 17.3862 90.924 17.6262 90.624C17.8782 90.324 18.1002 89.964 18.2922 89.544V87.744L18.7602 87.834C18.5682 88.026 18.3102 88.17 17.9862 88.266C17.6742 88.362 17.3262 88.44 16.9422 88.5C16.5582 88.56 16.1742 88.626 15.7902 88.698C15.4062 88.758 15.0522 88.854 14.7282 88.986C14.4162 89.106 14.1642 89.28 13.9722 89.508C13.7802 89.736 13.6842 90.048 13.6842 90.444C13.6842 90.924 13.8282 91.29 14.1162 91.542C14.4042 91.782 14.7822 91.902 15.2502 91.902ZM24.6632 93L21.3332 83.712H23.1512L25.6892 91.614H25.9412L28.4612 83.712H30.2432L26.9312 93H24.6632ZM33.9947 93.234C33.4907 93.234 33.0347 93.138 32.6267 92.946C32.2187 92.742 31.8947 92.448 31.6547 92.064C31.4147 91.668 31.2947 91.17 31.2947 90.57C31.2947 90.126 31.3727 89.736 31.5287 89.4C31.6967 89.064 31.9487 88.776 32.2847 88.536C32.6327 88.296 33.0767 88.098 33.6167 87.942C34.1567 87.786 34.8167 87.654 35.5967 87.546C36.0407 87.486 36.4007 87.426 36.6767 87.366C36.9647 87.306 37.1747 87.21 37.3067 87.078C37.4387 86.934 37.5047 86.724 37.5047 86.448C37.5047 85.992 37.3487 85.608 37.0367 85.296C36.7247 84.984 36.2327 84.828 35.5607 84.828C35.2127 84.828 34.8587 84.888 34.4987 85.008C34.1387 85.128 33.8207 85.332 33.5447 85.62C33.2807 85.896 33.1127 86.286 33.0407 86.79L31.5287 86.286C31.6247 85.854 31.7807 85.464 31.9967 85.116C32.2247 84.768 32.5127 84.474 32.8607 84.234C33.2087 83.982 33.6107 83.79 34.0667 83.658C34.5347 83.526 35.0507 83.46 35.6147 83.46C36.3947 83.46 37.0427 83.592 37.5587 83.856C38.0867 84.12 38.4767 84.528 38.7287 85.08C38.9927 85.62 39.1247 86.316 39.1247 87.168V89.238C39.1247 89.61 39.1307 90.018 39.1427 90.462C39.1667 90.894 39.1967 91.332 39.2327 91.776C39.2687 92.208 39.3047 92.616 39.3407 93H37.8287C37.7927 92.616 37.7567 92.232 37.7207 91.848C37.6967 91.464 37.6787 91.08 37.6667 90.696H37.4327C37.2527 91.14 37.0127 91.554 36.7127 91.938C36.4127 92.322 36.0347 92.634 35.5787 92.874C35.1347 93.114 34.6067 93.234 33.9947 93.234ZM34.4807 91.902C34.7447 91.902 35.0087 91.86 35.2727 91.776C35.5487 91.692 35.8187 91.554 36.0827 91.362C36.3587 91.17 36.6167 90.924 36.8567 90.624C37.1087 90.324 37.3307 89.964 37.5227 89.544V87.744L37.9907 87.834C37.7987 88.026 37.5407 88.17 37.2167 88.266C36.9047 88.362 36.5567 88.44 36.1727 88.5C35.7887 88.56 35.4047 88.626 35.0207 88.698C34.6367 88.758 34.2827 88.854 33.9587 88.986C33.6467 89.106 33.3947 89.28 33.2027 89.508C33.0107 89.736 32.9147 90.048 32.9147 90.444C32.9147 90.924 33.0587 91.29 33.3467 91.542C33.6347 91.782 34.0127 91.902 34.4807 91.902ZM46.1035 93.234C45.3115 93.234 44.6155 93.15 44.0155 92.982C43.4275 92.814 42.9295 92.568 42.5215 92.244C42.1255 91.908 41.8315 91.5 41.6395 91.02C41.4475 90.54 41.3635 89.982 41.3875 89.346L42.8815 89.022C42.8335 89.646 42.9355 90.168 43.1875 90.588C43.4395 91.008 43.8235 91.326 44.3395 91.542C44.8555 91.746 45.4615 91.848 46.1575 91.848C46.8295 91.848 47.3995 91.764 47.8675 91.596C48.3355 91.428 48.6835 91.194 48.9115 90.894C49.1515 90.594 49.2715 90.252 49.2715 89.868C49.2715 89.436 49.1335 89.094 48.8575 88.842C48.5815 88.59 48.2095 88.398 47.7415 88.266C47.2855 88.122 46.7755 87.99 46.2115 87.87C45.6595 87.75 45.1075 87.612 44.5555 87.456C44.0035 87.3 43.5055 87.102 43.0615 86.862C42.6295 86.61 42.2755 86.286 41.9995 85.89C41.7355 85.482 41.6035 84.966 41.6035 84.342C41.6035 83.634 41.7775 83.022 42.1255 82.506C42.4855 81.99 42.9895 81.594 43.6375 81.318C44.2855 81.03 45.0475 80.886 45.9235 80.886C46.7875 80.886 47.5555 81.024 48.2275 81.3C48.9115 81.576 49.4515 81.984 49.8475 82.524C50.2435 83.052 50.4535 83.706 50.4775 84.486L48.9295 84.864C48.9295 84.432 48.8515 84.054 48.6955 83.73C48.5515 83.394 48.3475 83.124 48.0835 82.92C47.8195 82.704 47.5015 82.542 47.1295 82.434C46.7575 82.314 46.3495 82.254 45.9055 82.254C45.3655 82.254 44.8915 82.338 44.4835 82.506C44.0755 82.674 43.7575 82.902 43.5295 83.19C43.3015 83.478 43.1875 83.82 43.1875 84.216C43.1875 84.684 43.3495 85.056 43.6735 85.332C44.0095 85.596 44.4415 85.806 44.9695 85.962C45.4975 86.118 46.0615 86.262 46.6615 86.394C47.1775 86.502 47.6815 86.634 48.1735 86.79C48.6775 86.934 49.1335 87.132 49.5415 87.384C49.9495 87.624 50.2735 87.942 50.5135 88.338C50.7535 88.734 50.8735 89.238 50.8735 89.85C50.8735 90.534 50.6935 91.128 50.3335 91.632C49.9855 92.136 49.4575 92.532 48.7495 92.82C48.0415 93.096 47.1595 93.234 46.1035 93.234ZM57.2412 93.234C56.4252 93.234 55.7292 93.102 55.1532 92.838C54.5892 92.574 54.1272 92.22 53.7672 91.776C53.4192 91.332 53.1612 90.822 52.9932 90.246C52.8372 89.67 52.7592 89.07 52.7592 88.446C52.7592 87.762 52.8492 87.12 53.0292 86.52C53.2092 85.92 53.4792 85.392 53.8392 84.936C54.2112 84.468 54.6672 84.108 55.2072 83.856C55.7592 83.592 56.4012 83.46 57.1332 83.46C57.8412 83.46 58.4652 83.586 59.0052 83.838C59.5452 84.078 59.9832 84.42 60.3192 84.864C60.6672 85.308 60.8892 85.836 60.9852 86.448L59.4192 86.88C59.3952 86.544 59.2932 86.22 59.1132 85.908C58.9452 85.596 58.6932 85.344 58.3572 85.152C58.0212 84.948 57.6072 84.846 57.1152 84.846C56.6472 84.846 56.2452 84.936 55.9092 85.116C55.5852 85.296 55.3092 85.548 55.0812 85.872C54.8652 86.196 54.6972 86.574 54.5772 87.006C54.4692 87.438 54.4152 87.906 54.4152 88.41C54.4152 89.106 54.5112 89.712 54.7032 90.228C54.9072 90.744 55.2192 91.146 55.6392 91.434C56.0592 91.722 56.5992 91.866 57.2592 91.866C57.7512 91.866 58.1712 91.782 58.5192 91.614C58.8672 91.434 59.1432 91.188 59.3472 90.876C59.5512 90.552 59.6832 90.174 59.7432 89.742L61.2552 90.084C61.1712 90.6 61.0152 91.056 60.7872 91.452C60.5592 91.848 60.2712 92.178 59.9232 92.442C59.5752 92.694 59.1732 92.886 58.7172 93.018C58.2732 93.162 57.7812 93.234 57.2412 93.234ZM63.1241 93V87.96V83.694H64.6001L64.4561 86.934H64.7621C64.8701 86.226 65.0381 85.614 65.2661 85.098C65.4941 84.582 65.7941 84.18 66.1661 83.892C66.5501 83.604 67.0241 83.46 67.5881 83.46C67.7081 83.46 67.8461 83.472 68.0021 83.496C68.1581 83.508 68.3381 83.55 68.5421 83.622L68.4521 85.332C68.2721 85.26 68.0921 85.212 67.9121 85.188C67.7321 85.152 67.5581 85.134 67.3901 85.134C66.9221 85.134 66.5141 85.284 66.1661 85.584C65.8301 85.884 65.5481 86.292 65.3201 86.808C65.0921 87.312 64.9061 87.882 64.7621 88.518V93H63.1241ZM70.3316 93V83.694H71.9696V93H70.3316ZM71.1596 82.074C70.7756 82.074 70.4876 81.996 70.2956 81.84C70.1036 81.684 70.0076 81.45 70.0076 81.138C70.0076 80.826 70.1036 80.592 70.2956 80.436C70.4876 80.28 70.7696 80.202 71.1416 80.202C71.5256 80.202 71.8136 80.28 72.0056 80.436C72.1976 80.592 72.2936 80.826 72.2936 81.138C72.2936 81.438 72.1976 81.672 72.0056 81.84C71.8136 81.996 71.5316 82.074 71.1596 82.074ZM74.8136 95.916V88.356V83.694H76.2896L76.1996 86.088H76.4696C76.6136 85.56 76.8116 85.104 77.0636 84.72C77.3276 84.324 77.6636 84.018 78.0716 83.802C78.4796 83.574 78.9716 83.46 79.5476 83.46C80.3996 83.46 81.1076 83.676 81.6716 84.108C82.2476 84.528 82.6796 85.11 82.9676 85.854C83.2556 86.586 83.3996 87.42 83.3996 88.356C83.3996 89.292 83.2556 90.126 82.9676 90.858C82.6796 91.59 82.2536 92.172 81.6896 92.604C81.1376 93.024 80.4596 93.234 79.6556 93.234C79.0076 93.234 78.4676 93.102 78.0356 92.838C77.6156 92.562 77.2796 92.202 77.0276 91.758C76.7756 91.314 76.5776 90.852 76.4336 90.372H76.1276C76.1996 90.696 76.2596 91.032 76.3076 91.38C76.3556 91.728 76.3916 92.076 76.4156 92.424C76.4516 92.76 76.4696 93.084 76.4696 93.396V95.916H74.8136ZM79.2416 91.812C79.7696 91.812 80.2136 91.662 80.5736 91.362C80.9336 91.05 81.2096 90.63 81.4016 90.102C81.5936 89.574 81.6896 88.98 81.6896 88.32C81.6896 87.612 81.5876 87.006 81.3836 86.502C81.1916 85.998 80.9156 85.608 80.5556 85.332C80.1956 85.044 79.7576 84.9 79.2416 84.9C78.7976 84.9 78.4016 85.002 78.0536 85.206C77.7176 85.398 77.4296 85.662 77.1896 85.998C76.9496 86.322 76.7636 86.682 76.6316 87.078C76.5116 87.462 76.4516 87.846 76.4516 88.23V88.446C76.4516 88.686 76.4876 88.956 76.5596 89.256C76.6316 89.544 76.7396 89.838 76.8836 90.138C77.0276 90.438 77.2076 90.714 77.4236 90.966C77.6516 91.218 77.9156 91.422 78.2156 91.578C78.5156 91.734 78.8576 91.812 79.2416 91.812ZM88.6628 93.18C87.7988 93.18 87.1568 92.946 86.7368 92.478C86.3168 92.01 86.1068 91.296 86.1068 90.336V85.062H84.7028L84.7208 83.694H85.6028C85.9028 83.694 86.1188 83.64 86.2508 83.532C86.3948 83.424 86.4788 83.244 86.5028 82.992L86.6828 81.588H87.6908V83.694H90.3728V85.08H87.6908V90.3C87.6908 90.78 87.7988 91.128 88.0148 91.344C88.2428 91.548 88.5668 91.65 88.9868 91.65C89.2148 91.65 89.4488 91.62 89.6888 91.56C89.9408 91.5 90.1868 91.38 90.4268 91.2V92.838C90.0788 92.97 89.7548 93.06 89.4548 93.108C89.1668 93.156 88.9028 93.18 88.6628 93.18Z" fill="#F8F9FA"/>
<defs>
<clipPath id="clip0_2743_5679">
<rect width="72" height="72" fill="white" transform="translate(12)"/>
</clipPath>
<clipPath id="clip1_2743_5679">
<rect width="72" height="72" fill="white" transform="translate(12)"/>
</clipPath>
</defs>
</svg>
