<svg width="96" height="144" viewBox="0 0 96 144" fill="none" xmlns="http://www.w3.org/2000/svg">
<g style="mix-blend-mode:luminosity" clip-path="url(#clip0_2743_5701)">
<g clip-path="url(#clip1_2743_5701)">
<path d="M48 72C28.125 72 12 55.875 12 36C12 16.125 28.125 0 48 0C67.875 0 84 16.125 84 36C84 55.875 67.875 72 48 72Z" fill="#F8F9FA"/>
<path d="M48 67.5C65.397 67.5 79.5 53.397 79.5 36C79.5 18.603 65.397 4.5 48 4.5C30.603 4.5 16.5 18.603 16.5 36C16.5 53.397 30.603 67.5 48 67.5Z" fill="#757575"/>
<path d="M25.9453 13.9492H70.0453V58.0492H25.9453V13.9492Z" fill="#BDBDBD"/>
<path d="M70.0453 13.9492L47.9953 58.0492L25.9453 13.9492H70.0453Z" fill="#F8F9FA"/>
</g>
</g>
<path d="M15.0597 93V81.12H17.6157L21.5577 91.272H21.6477L25.5717 81.12H28.0377V93H26.4717L26.5797 82.794H26.4357L22.3497 93H20.7297L16.6797 82.776H16.5357L16.6437 93H15.0597ZM33.1245 93.234C32.6205 93.234 32.1645 93.138 31.7565 92.946C31.3485 92.742 31.0245 92.448 30.7845 92.064C30.5445 91.668 30.4245 91.17 30.4245 90.57C30.4245 90.126 30.5025 89.736 30.6585 89.4C30.8265 89.064 31.0785 88.776 31.4145 88.536C31.7625 88.296 32.2065 88.098 32.7465 87.942C33.2865 87.786 33.9465 87.654 34.7265 87.546C35.1705 87.486 35.5305 87.426 35.8065 87.366C36.0945 87.306 36.3045 87.21 36.4365 87.078C36.5685 86.934 36.6345 86.724 36.6345 86.448C36.6345 85.992 36.4785 85.608 36.1665 85.296C35.8545 84.984 35.3625 84.828 34.6905 84.828C34.3425 84.828 33.9885 84.888 33.6285 85.008C33.2685 85.128 32.9505 85.332 32.6745 85.62C32.4105 85.896 32.2425 86.286 32.1705 86.79L30.6585 86.286C30.7545 85.854 30.9105 85.464 31.1265 85.116C31.3545 84.768 31.6425 84.474 31.9905 84.234C32.3385 83.982 32.7405 83.79 33.1965 83.658C33.6645 83.526 34.1805 83.46 34.7445 83.46C35.5245 83.46 36.1725 83.592 36.6885 83.856C37.2165 84.12 37.6065 84.528 37.8585 85.08C38.1225 85.62 38.2545 86.316 38.2545 87.168V89.238C38.2545 89.61 38.2605 90.018 38.2725 90.462C38.2965 90.894 38.3265 91.332 38.3625 91.776C38.3985 92.208 38.4345 92.616 38.4705 93H36.9585C36.9225 92.616 36.8865 92.232 36.8505 91.848C36.8265 91.464 36.8085 91.08 36.7965 90.696H36.5625C36.3825 91.14 36.1425 91.554 35.8425 91.938C35.5425 92.322 35.1645 92.634 34.7085 92.874C34.2645 93.114 33.7365 93.234 33.1245 93.234ZM33.6105 91.902C33.8745 91.902 34.1385 91.86 34.4025 91.776C34.6785 91.692 34.9485 91.554 35.2125 91.362C35.4885 91.17 35.7465 90.924 35.9865 90.624C36.2385 90.324 36.4605 89.964 36.6525 89.544V87.744L37.1205 87.834C36.9285 88.026 36.6705 88.17 36.3465 88.266C36.0345 88.362 35.6865 88.44 35.3025 88.5C34.9185 88.56 34.5345 88.626 34.1505 88.698C33.7665 88.758 33.4125 88.854 33.0885 88.986C32.7765 89.106 32.5245 89.28 32.3325 89.508C32.1405 89.736 32.0445 90.048 32.0445 90.444C32.0445 90.924 32.1885 91.29 32.4765 91.542C32.7645 91.782 33.1425 91.902 33.6105 91.902ZM43.9001 93.18C43.0361 93.18 42.3941 92.946 41.9741 92.478C41.5541 92.01 41.3441 91.296 41.3441 90.336V85.062H39.9401L39.9581 83.694H40.8401C41.1401 83.694 41.3561 83.64 41.4881 83.532C41.6321 83.424 41.7161 83.244 41.7401 82.992L41.9201 81.588H42.9281V83.694H45.6101V85.08H42.9281V90.3C42.9281 90.78 43.0361 91.128 43.2521 91.344C43.4801 91.548 43.8041 91.65 44.2241 91.65C44.4521 91.65 44.6861 91.62 44.9261 91.56C45.1781 91.5 45.4241 91.38 45.6641 91.2V92.838C45.3161 92.97 44.9921 93.06 44.6921 93.108C44.4041 93.156 44.1401 93.18 43.9001 93.18ZM51.5723 93.234C50.8403 93.234 50.1923 93.126 49.6283 92.91C49.0763 92.682 48.6083 92.358 48.2243 91.938C47.8403 91.518 47.5523 91.02 47.3603 90.444C47.1683 89.868 47.0723 89.22 47.0723 88.5C47.0723 87.768 47.1683 87.096 47.3603 86.484C47.5523 85.872 47.8343 85.338 48.2063 84.882C48.5783 84.426 49.0343 84.078 49.5743 83.838C50.1143 83.586 50.7323 83.46 51.4283 83.46C52.0403 83.46 52.5983 83.562 53.1023 83.766C53.6063 83.97 54.0323 84.288 54.3803 84.72C54.7403 85.14 55.0103 85.674 55.1903 86.322C55.3703 86.958 55.4423 87.708 55.4063 88.572L48.0983 88.626V87.51L54.4163 87.456L53.8583 88.212C53.9183 87.456 53.8463 86.832 53.6423 86.34C53.4383 85.848 53.1443 85.476 52.7603 85.224C52.3883 84.972 51.9443 84.846 51.4283 84.846C50.8763 84.846 50.3903 84.99 49.9703 85.278C49.5503 85.566 49.2263 85.98 48.9983 86.52C48.7823 87.06 48.6743 87.714 48.6743 88.482C48.6743 89.586 48.9203 90.432 49.4123 91.02C49.9043 91.596 50.6363 91.884 51.6083 91.884C51.9803 91.884 52.3043 91.842 52.5803 91.758C52.8683 91.662 53.1083 91.536 53.3003 91.38C53.5043 91.212 53.6663 91.02 53.7863 90.804C53.9183 90.588 54.0203 90.354 54.0923 90.102L55.5323 90.444C55.4243 90.876 55.2563 91.266 55.0283 91.614C54.8123 91.95 54.5363 92.238 54.2003 92.478C53.8763 92.718 53.4983 92.904 53.0663 93.036C52.6343 93.168 52.1363 93.234 51.5723 93.234ZM57.7365 93V87.96V83.694H59.2125L59.0685 86.934H59.3745C59.4825 86.226 59.6505 85.614 59.8785 85.098C60.1065 84.582 60.4065 84.18 60.7785 83.892C61.1625 83.604 61.6365 83.46 62.2005 83.46C62.3205 83.46 62.4585 83.472 62.6145 83.496C62.7705 83.508 62.9505 83.55 63.1545 83.622L63.0645 85.332C62.8845 85.26 62.7045 85.212 62.5245 85.188C62.3445 85.152 62.1705 85.134 62.0025 85.134C61.5345 85.134 61.1265 85.284 60.7785 85.584C60.4425 85.884 60.1605 86.292 59.9325 86.808C59.7045 87.312 59.5185 87.882 59.3745 88.518V93H57.7365ZM64.9439 93V83.694H66.5819V93H64.9439ZM65.7719 82.074C65.3879 82.074 65.0999 81.996 64.9079 81.84C64.7159 81.684 64.6199 81.45 64.6199 81.138C64.6199 80.826 64.7159 80.592 64.9079 80.436C65.0999 80.28 65.3819 80.202 65.7539 80.202C66.1379 80.202 66.4259 80.28 66.6179 80.436C66.8099 80.592 66.9059 80.826 66.9059 81.138C66.9059 81.438 66.8099 81.672 66.6179 81.84C66.4259 81.996 66.1439 82.074 65.7719 82.074ZM71.5679 93.234C71.0639 93.234 70.6079 93.138 70.1999 92.946C69.7919 92.742 69.4679 92.448 69.2279 92.064C68.9879 91.668 68.8679 91.17 68.8679 90.57C68.8679 90.126 68.9459 89.736 69.1019 89.4C69.2699 89.064 69.5219 88.776 69.8579 88.536C70.2059 88.296 70.6499 88.098 71.1899 87.942C71.7299 87.786 72.3899 87.654 73.1699 87.546C73.6139 87.486 73.9739 87.426 74.2499 87.366C74.5379 87.306 74.7479 87.21 74.8799 87.078C75.0119 86.934 75.0779 86.724 75.0779 86.448C75.0779 85.992 74.9219 85.608 74.6099 85.296C74.2979 84.984 73.8059 84.828 73.1339 84.828C72.7859 84.828 72.4319 84.888 72.0719 85.008C71.7119 85.128 71.3939 85.332 71.1179 85.62C70.8539 85.896 70.6859 86.286 70.6139 86.79L69.1019 86.286C69.1979 85.854 69.3539 85.464 69.5699 85.116C69.7979 84.768 70.0859 84.474 70.4339 84.234C70.7819 83.982 71.1839 83.79 71.6399 83.658C72.1079 83.526 72.6239 83.46 73.1879 83.46C73.9679 83.46 74.6159 83.592 75.1319 83.856C75.6599 84.12 76.0499 84.528 76.3019 85.08C76.5659 85.62 76.6979 86.316 76.6979 87.168V89.238C76.6979 89.61 76.7039 90.018 76.7159 90.462C76.7399 90.894 76.7699 91.332 76.8059 91.776C76.8419 92.208 76.8779 92.616 76.9139 93H75.4019C75.3659 92.616 75.3299 92.232 75.2939 91.848C75.2699 91.464 75.2519 91.08 75.2399 90.696H75.0059C74.8259 91.14 74.5859 91.554 74.2859 91.938C73.9859 92.322 73.6079 92.634 73.1519 92.874C72.7079 93.114 72.1799 93.234 71.5679 93.234ZM72.0539 91.902C72.3179 91.902 72.5819 91.86 72.8459 91.776C73.1219 91.692 73.3919 91.554 73.6559 91.362C73.9319 91.17 74.1899 90.924 74.4299 90.624C74.6819 90.324 74.9039 89.964 75.0959 89.544V87.744L75.5639 87.834C75.3719 88.026 75.1139 88.17 74.7899 88.266C74.4779 88.362 74.1299 88.44 73.7459 88.5C73.3619 88.56 72.9779 88.626 72.5939 88.698C72.2099 88.758 71.8559 88.854 71.5319 88.986C71.2199 89.106 70.9679 89.28 70.7759 89.508C70.5839 89.736 70.4879 90.048 70.4879 90.444C70.4879 90.924 70.6319 91.29 70.9199 91.542C71.2079 91.782 71.5859 91.902 72.0539 91.902ZM79.4454 93V80.4H81.0834V93H79.4454ZM21.4876 115V113.578H24.9976C25.8136 113.578 26.4856 113.392 27.0136 113.02C27.5416 112.636 27.9316 112.108 28.1836 111.436C28.4476 110.764 28.5796 109.984 28.5796 109.096C28.5796 108.316 28.4956 107.638 28.3276 107.062C28.1716 106.486 27.9256 106.018 27.5896 105.658C27.2536 105.286 26.8276 105.01 26.3116 104.83C25.8076 104.638 25.2076 104.542 24.5116 104.542H21.4876V103.12H24.4756C25.8196 103.12 26.9176 103.354 27.7696 103.822C28.6216 104.29 29.2516 104.962 29.6596 105.838C30.0676 106.714 30.2716 107.758 30.2716 108.97C30.2716 109.774 30.1816 110.5 30.0016 111.148C29.8336 111.796 29.5876 112.36 29.2636 112.84C28.9516 113.32 28.5796 113.722 28.1476 114.046C27.7156 114.358 27.2356 114.598 26.7076 114.766C26.1796 114.922 25.6276 115 25.0516 115H21.4876ZM20.6056 115V103.12H22.2616V115H20.6056ZM36.7979 115.234C36.0659 115.234 35.4179 115.126 34.8539 114.91C34.3019 114.682 33.8339 114.358 33.4499 113.938C33.0659 113.518 32.7779 113.02 32.5859 112.444C32.3939 111.868 32.2979 111.22 32.2979 110.5C32.2979 109.768 32.3939 109.096 32.5859 108.484C32.7779 107.872 33.0599 107.338 33.4319 106.882C33.8039 106.426 34.2599 106.078 34.7999 105.838C35.3399 105.586 35.9579 105.46 36.6539 105.46C37.2659 105.46 37.8239 105.562 38.3279 105.766C38.8319 105.97 39.2579 106.288 39.6059 106.72C39.9659 107.14 40.2359 107.674 40.4159 108.322C40.5959 108.958 40.6679 109.708 40.6319 110.572L33.3239 110.626V109.51L39.6419 109.456L39.0839 110.212C39.1439 109.456 39.0719 108.832 38.8679 108.34C38.6639 107.848 38.3699 107.476 37.9859 107.224C37.6139 106.972 37.1699 106.846 36.6539 106.846C36.1019 106.846 35.6159 106.99 35.1959 107.278C34.7759 107.566 34.4519 107.98 34.2239 108.52C34.0079 109.06 33.8999 109.714 33.8999 110.482C33.8999 111.586 34.1459 112.432 34.6379 113.02C35.1299 113.596 35.8619 113.884 36.8339 113.884C37.2059 113.884 37.5299 113.842 37.8059 113.758C38.0939 113.662 38.3339 113.536 38.5259 113.38C38.7299 113.212 38.8919 113.02 39.0119 112.804C39.1439 112.588 39.2459 112.354 39.3179 112.102L40.7579 112.444C40.6499 112.876 40.4819 113.266 40.2539 113.614C40.0379 113.95 39.7619 114.238 39.4259 114.478C39.1019 114.718 38.7239 114.904 38.2919 115.036C37.8599 115.168 37.3619 115.234 36.7979 115.234ZM46.5587 115.234C45.9107 115.234 45.3347 115.162 44.8307 115.018C44.3267 114.886 43.9067 114.694 43.5707 114.442C43.2347 114.178 42.9767 113.866 42.7967 113.506C42.6167 113.146 42.5207 112.75 42.5087 112.318L43.8947 111.958C43.8707 112.354 43.9667 112.702 44.1827 113.002C44.4107 113.29 44.7287 113.512 45.1367 113.668C45.5567 113.824 46.0607 113.902 46.6487 113.902C47.3567 113.902 47.9027 113.782 48.2867 113.542C48.6827 113.302 48.8807 112.972 48.8807 112.552C48.8807 112.216 48.7727 111.958 48.5567 111.778C48.3407 111.586 48.0407 111.436 47.6567 111.328C47.2847 111.208 46.8407 111.1 46.3247 111.004C45.8927 110.908 45.4607 110.8 45.0287 110.68C44.5967 110.56 44.2007 110.404 43.8407 110.212C43.4927 110.008 43.2107 109.744 42.9947 109.42C42.7787 109.096 42.6707 108.694 42.6707 108.214C42.6707 107.65 42.8207 107.164 43.1207 106.756C43.4207 106.348 43.8467 106.03 44.3987 105.802C44.9507 105.574 45.6107 105.46 46.3787 105.46C47.1467 105.46 47.8007 105.58 48.3407 105.82C48.8807 106.048 49.3067 106.372 49.6187 106.792C49.9307 107.212 50.1047 107.704 50.1407 108.268L48.7187 108.628C48.7067 108.232 48.5987 107.896 48.3947 107.62C48.2027 107.344 47.9267 107.14 47.5667 107.008C47.2067 106.864 46.7867 106.792 46.3067 106.792C45.6707 106.792 45.1667 106.912 44.7947 107.152C44.4227 107.392 44.2367 107.722 44.2367 108.142C44.2367 108.454 44.3447 108.706 44.5607 108.898C44.7887 109.09 45.0947 109.24 45.4787 109.348C45.8627 109.456 46.2887 109.564 46.7567 109.672C47.2367 109.768 47.6927 109.876 48.1247 109.996C48.5687 110.116 48.9647 110.272 49.3127 110.464C49.6607 110.656 49.9367 110.914 50.1407 111.238C50.3447 111.55 50.4467 111.952 50.4467 112.444C50.4467 113.056 50.2847 113.572 49.9607 113.992C49.6367 114.4 49.1807 114.712 48.5927 114.928C48.0167 115.132 47.3387 115.234 46.5587 115.234ZM52.6832 115V105.694H54.3212V115H52.6832ZM53.5112 104.074C53.1272 104.074 52.8392 103.996 52.6472 103.84C52.4552 103.684 52.3592 103.45 52.3592 103.138C52.3592 102.826 52.4552 102.592 52.6472 102.436C52.8392 102.28 53.1212 102.202 53.4932 102.202C53.8772 102.202 54.1652 102.28 54.3572 102.436C54.5492 102.592 54.6452 102.826 54.6452 103.138C54.6452 103.438 54.5492 103.672 54.3572 103.84C54.1652 103.996 53.8832 104.074 53.5112 104.074ZM60.6392 118.15C59.6552 118.15 58.8452 118.072 58.2092 117.916C57.5852 117.772 57.1232 117.544 56.8232 117.232C56.5232 116.932 56.3732 116.554 56.3732 116.098C56.3732 115.546 56.5892 115.09 57.0212 114.73C57.4532 114.37 58.1072 114.13 58.9832 114.01V113.686C58.3472 113.686 57.8672 113.608 57.5432 113.452C57.2192 113.296 57.0572 113.062 57.0572 112.75C57.0572 112.426 57.2192 112.156 57.5432 111.94C57.8672 111.712 58.3952 111.502 59.1272 111.31V110.968C58.3952 110.956 57.8372 110.74 57.4532 110.32C57.0692 109.888 56.8772 109.33 56.8772 108.646C56.8772 108.034 57.0392 107.506 57.3632 107.062C57.6992 106.606 58.1792 106.258 58.8032 106.018C59.4392 105.766 60.1952 105.64 61.0712 105.64H65.4632V107.026L62.5832 106.576V106.918C63.2792 107.062 63.8132 107.308 64.1852 107.656C64.5572 107.992 64.7432 108.448 64.7432 109.024C64.7432 109.54 64.5932 109.99 64.2932 110.374C63.9932 110.758 63.5492 111.058 62.9612 111.274C62.3852 111.478 61.6712 111.58 60.8192 111.58C60.6512 111.58 60.4712 111.574 60.2792 111.562C60.0992 111.538 59.8592 111.502 59.5592 111.454C59.2352 111.658 58.9712 111.844 58.7672 112.012C58.5752 112.18 58.4792 112.33 58.4792 112.462C58.4792 112.594 58.5692 112.702 58.7492 112.786C58.9412 112.858 59.1692 112.906 59.4332 112.93C59.6972 112.954 59.9432 112.966 60.1712 112.966H62.2772C62.5172 112.966 62.8172 112.99 63.1772 113.038C63.5492 113.086 63.9152 113.188 64.2752 113.344C64.6472 113.5 64.9592 113.74 65.2112 114.064C65.4632 114.388 65.5892 114.838 65.5892 115.414C65.5892 116.062 65.3972 116.59 65.0132 116.998C64.6292 117.406 64.0712 117.7 63.3392 117.88C62.6072 118.06 61.7072 118.15 60.6392 118.15ZM60.6752 116.8C61.4792 116.8 62.1272 116.746 62.6192 116.638C63.1232 116.542 63.4892 116.386 63.7172 116.17C63.9572 115.954 64.0772 115.678 64.0772 115.342C64.0772 115.03 63.9932 114.79 63.8252 114.622C63.6692 114.442 63.4712 114.316 63.2312 114.244C62.9912 114.172 62.7512 114.13 62.5112 114.118C62.2712 114.094 62.0672 114.082 61.8992 114.082H59.7932C59.0972 114.238 58.6172 114.454 58.3532 114.73C58.0892 115.006 57.9572 115.3 57.9572 115.612C57.9572 115.948 58.0772 116.2 58.3172 116.368C58.5572 116.536 58.8812 116.65 59.2892 116.71C59.7092 116.77 60.1712 116.8 60.6752 116.8ZM60.8912 110.518C61.6472 110.518 62.2172 110.362 62.6012 110.05C62.9852 109.738 63.1772 109.318 63.1772 108.79C63.1772 108.226 62.9792 107.764 62.5832 107.404C62.1992 107.032 61.6172 106.846 60.8372 106.846C60.0812 106.846 59.4992 107.02 59.0912 107.368C58.6952 107.716 58.4972 108.166 58.4972 108.718C58.4972 109.078 58.5872 109.396 58.7672 109.672C58.9592 109.936 59.2292 110.146 59.5772 110.302C59.9372 110.446 60.3752 110.518 60.8912 110.518ZM67.6417 115V109.222V105.694H69.1177L68.9557 108.646H69.2617C69.4297 107.914 69.6517 107.314 69.9277 106.846C70.2157 106.378 70.5757 106.03 71.0077 105.802C71.4397 105.574 71.9437 105.46 72.5197 105.46C73.5517 105.46 74.3317 105.832 74.8597 106.576C75.3997 107.308 75.6697 108.406 75.6697 109.87V115H74.0137V110.014C74.0137 108.958 73.8457 108.178 73.5097 107.674C73.1857 107.17 72.7057 106.918 72.0697 106.918C71.4937 106.918 71.0017 107.098 70.5937 107.458C70.1977 107.818 69.8857 108.292 69.6577 108.88C69.4297 109.468 69.3037 110.104 69.2797 110.788V115H67.6417Z" fill="#F8F9FA"/>
<defs>
<clipPath id="clip0_2743_5701">
<rect width="72" height="72" fill="white" transform="translate(12)"/>
</clipPath>
<clipPath id="clip1_2743_5701">
<rect width="72" height="72" fill="white" transform="translate(12)"/>
</clipPath>
</defs>
</svg>
