<svg width="96" height="98" viewBox="0 0 96 98" fill="none" xmlns="http://www.w3.org/2000/svg">
<g style="mix-blend-mode:luminosity" clip-path="url(#clip0_2743_5695)">
<path d="M78.9448 41.1C78.8773 41.04 78.8098 40.98 78.7423 40.92C79.0273 39.165 79.1623 37.5675 79.1623 36.0225C79.1623 34.32 78.9823 32.6775 78.7423 31.1625C80.0923 30.2925 80.6023 29.01 80.7748 28.56L80.8573 28.3725C81.1723 27.6525 82.0573 25.65 81.2023 23.3775C80.9473 22.32 80.4448 21.57 80.1373 21.15C79.7923 20.3625 79.3873 19.71 79.0498 19.1625C78.8548 18.84 78.6673 18.54 78.5323 18.255C78.1873 17.565 77.8123 16.9425 77.4898 16.395C77.2198 15.9375 76.9573 15.5025 76.7923 15.18C75.8398 13.1925 74.3998 11.8275 72.4873 11.1C71.6623 10.7925 70.8223 10.635 70.0048 10.635C69.3523 10.635 68.7073 10.7325 68.0398 10.9425C67.8148 11.0175 67.5823 11.0925 67.3573 11.1675C64.8598 9.15 62.1373 7.56 59.2348 6.4125C59.1748 6.105 59.0998 5.7975 59.0173 5.4675C58.5148 3.5625 57.3973 2.055 55.8598 1.215C54.8548 0.6375 53.4823 0 51.6298 0C50.3473 0.015 49.0648 0.03 47.7748 0.03C46.4848 0.03 45.2098 0.0225 43.8598 0C42.7273 0 41.8723 0.2775 41.3473 0.4425L41.2498 0.4725C38.6548 1.3725 36.8848 3.4125 36.3973 6.105C36.3823 6.195 36.3673 6.285 36.3598 6.375C33.4423 7.5375 30.7123 9.1275 28.2073 11.1225C27.9748 11.04 27.7423 10.965 27.5098 10.8975C26.8798 10.71 26.2198 10.6125 25.5448 10.6125C23.2198 10.6125 20.9623 11.7825 19.6198 13.7325C19.3123 14.19 19.1023 14.61 18.9448 14.9175C18.8998 15.0075 18.8623 15.09 18.8473 15.12L18.8023 15.1875C18.3223 15.9 17.9323 16.605 17.5873 17.2275C17.4148 17.535 17.2498 17.835 17.0623 18.15C16.7848 18.6225 16.5073 19.1025 16.2373 19.5825C15.8698 20.2275 15.5023 20.88 15.1123 21.5025L15.0673 21.585C14.4148 22.6875 14.1673 23.8575 14.0623 24.6975C13.8148 26.94 14.7448 29.1825 16.6198 30.8475C16.6948 30.915 16.7698 30.9825 16.8448 31.05C16.5898 32.64 16.4023 34.245 16.4023 35.9325C16.4023 37.62 16.5823 39.2775 16.8223 40.7925C15.4723 41.6625 14.9623 42.945 14.7898 43.395L14.7073 43.5825C14.3923 44.3025 13.5073 46.305 14.3623 48.5775C14.6173 49.635 15.1198 50.385 15.4273 50.805C15.7723 51.5925 16.1773 52.245 16.5073 52.7925C16.7023 53.115 16.8898 53.415 17.0248 53.7C17.3698 54.39 17.7448 55.0125 18.0673 55.5675C18.3373 56.025 18.5998 56.46 18.7648 56.7825C19.7173 58.77 21.1573 60.1425 23.0698 60.8625C23.8948 61.17 24.7348 61.3275 25.5523 61.3275C26.2048 61.3275 26.8498 61.23 27.5173 61.02C27.7423 60.945 27.9748 60.87 28.1998 60.795C30.7123 62.835 33.4423 64.4325 36.3523 65.565C36.3973 65.7975 36.4423 66.03 36.4873 66.27C36.8773 68.25 38.0398 69.8925 39.6898 70.7925C40.6948 71.3625 42.0673 72 43.9123 72C45.1948 71.985 46.4773 71.97 47.7673 71.97C49.0573 71.97 50.3323 71.9775 51.6223 72H51.6898C52.8223 72 53.7223 71.715 54.1948 71.565C56.7298 70.755 58.5073 68.8275 59.0773 66.255C59.1223 66.0375 59.1673 65.82 59.2123 65.6025C62.1598 64.455 64.8673 62.8725 67.3948 60.825C67.5898 60.8925 67.7998 60.96 68.0098 61.02C68.4973 61.1625 69.2548 61.3575 70.1473 61.3575C71.1298 61.3575 72.0598 61.1325 72.9373 60.6825L72.9748 60.6675C74.5498 60.03 75.6448 59.0475 76.2448 57.735C76.8598 56.82 77.3548 55.905 77.7973 55.08C78.0448 54.63 78.2848 54.1725 78.5623 53.7075C78.7873 53.325 79.0123 52.935 79.2298 52.5525C79.6348 51.8475 80.0398 51.15 80.4598 50.46C81.0148 49.5675 81.3598 48.5325 81.5173 47.2575C81.7648 45.015 80.8348 42.7725 78.9598 41.1075L78.9448 41.1Z" fill="#F8F9FA"/>
<path d="M40.2657 62.1381C36.0882 60.9456 32.4132 58.7481 29.2032 55.6731C28.1982 56.0331 27.1707 56.3931 26.1282 56.7381C25.6407 56.8881 25.1607 56.8356 24.6507 56.6406C23.7582 56.3031 23.2107 55.6356 22.8207 54.8181C22.2807 53.7381 21.5907 52.7556 21.0507 51.6756C20.5632 50.6706 19.8582 49.8006 19.4457 48.7581C19.2432 48.2481 18.7032 47.9031 18.7032 47.2581C18.2157 46.4631 18.6882 45.7581 18.9657 45.0606C19.0407 44.8731 19.1307 44.6256 19.3032 44.5506C19.9782 44.2506 20.3082 43.5681 20.8707 43.1481C21.1332 42.9606 21.4107 42.7506 21.7107 42.5256C21.2832 40.3431 20.9082 38.1681 20.9082 35.9331C20.9082 33.6981 21.2982 31.5756 21.7107 29.4531C20.9832 28.7706 20.3082 28.1106 19.6032 27.4806C18.8757 26.8356 18.4482 26.0406 18.5382 25.2081C18.5907 24.7506 18.7257 24.2631 18.9507 23.8806C19.6407 22.7631 20.2782 21.5856 20.9457 20.4531C21.4857 19.5456 21.9507 18.5931 22.5507 17.7081C22.8657 17.2506 23.0532 16.7256 23.3682 16.2456C23.9832 15.3531 25.2132 14.9181 26.2257 15.2256C27.1182 15.4881 27.9582 15.8856 28.8732 16.0581C28.9632 16.0806 29.0382 16.2081 29.1357 16.3056C32.3607 13.2531 36.0357 11.0781 40.2582 9.80312C40.4232 9.29312 40.4607 8.73812 40.6707 8.21312C40.8207 7.81562 40.7832 7.32063 40.8582 6.88563C41.0607 5.74563 41.7507 5.08563 42.7407 4.74063C43.0932 4.62813 43.4532 4.51562 43.8807 4.51562C46.4907 4.55313 49.1007 4.55313 51.7182 4.51562C52.4607 4.51562 53.0982 4.81563 53.6982 5.16063C54.2382 5.44563 54.5382 6.05312 54.6882 6.62313C54.9507 7.66562 55.1007 8.73063 55.3032 9.82563C59.5032 11.0406 63.1782 13.2156 66.3882 16.2906C67.3932 15.9306 68.4207 15.5706 69.4632 15.2256C69.9507 15.0756 70.4307 15.1281 70.9407 15.3231C71.8332 15.6606 72.3807 16.3281 72.7707 17.1456C73.3107 18.2256 74.0007 19.2081 74.5407 20.2881C75.0282 21.2931 75.7332 22.1631 76.1457 23.2056C76.3482 23.7156 76.8882 24.0606 76.8882 24.7056C77.3757 25.5006 76.9032 26.2056 76.6257 26.9031C76.5507 27.0906 76.4607 27.3381 76.2882 27.4131C75.6132 27.7131 75.2832 28.3956 74.7207 28.8156C74.4582 29.0031 74.1807 29.2131 73.8807 29.4381C74.3082 31.6206 74.6832 33.7956 74.6832 36.0306C74.6832 38.2656 74.3457 40.3881 73.8807 42.5106C74.6082 43.1931 75.2832 43.8531 75.9882 44.4831C76.7157 45.1281 77.1432 45.9231 77.0532 46.7556C77.0007 47.2131 76.8882 47.7006 76.6407 48.0831C75.9657 49.1856 75.3357 50.3181 74.6832 51.4356C73.8657 52.8156 73.1907 54.3156 72.2382 55.6206C72.0732 56.3406 71.3982 56.4006 70.9107 56.6631C70.3857 56.9481 69.8682 56.8731 69.2907 56.7006C68.4357 56.4531 67.6107 56.0181 66.7182 55.9056C66.6282 55.8831 66.5532 55.7556 66.4557 55.6581C63.2307 58.7481 59.5707 60.9456 55.3032 62.1756C55.1007 63.1956 54.9132 64.2606 54.6882 65.3031C54.4632 66.3231 53.7957 66.9681 52.8432 67.2756C52.4907 67.3881 52.1157 67.5006 51.7032 67.5006C49.0932 67.4631 46.4832 67.4631 43.8657 67.5006C43.1232 67.5006 42.4857 67.2006 41.8857 66.8556C41.3457 66.5706 41.0307 65.9631 40.9182 65.3931C40.7157 64.2756 40.5057 63.2331 40.2807 62.1306L40.2657 62.1381ZM41.4807 45.4431C41.8557 45.2331 42.2832 45.1056 42.2982 44.6481C42.3357 43.9656 42.4257 43.2681 42.2832 42.6231C42.0207 41.5206 41.5557 40.4631 41.2782 39.3606C41.0907 38.6631 40.6782 37.9956 40.7007 37.2381C40.1007 35.7381 39.7332 34.1706 39.2232 32.6481C38.8107 31.3956 38.5107 30.1056 38.0682 28.8756C37.8282 28.1931 37.7682 27.4356 37.3257 26.8281C37.2882 26.7681 37.2732 26.7306 37.2732 26.7306C36.7707 26.3931 36.2457 26.5056 35.7957 26.5056C35.5332 26.7531 35.3082 26.9631 35.1057 27.1506C35.0907 27.7581 34.6557 28.2306 34.7307 28.8156C34.0782 30.2931 33.8007 31.8831 33.2532 33.4056C32.9757 34.1856 32.8032 34.9806 32.5782 35.7756C32.3757 36.5706 31.9257 37.2906 31.9257 38.1456C31.2132 39.7581 30.8607 41.4831 30.3432 43.1706C30.2157 43.5906 30.1407 43.9881 30.3957 44.3856C30.4707 44.4981 30.4332 44.6706 30.4332 44.6481C30.7332 44.9706 30.9582 45.1956 31.1457 45.4281H32.2632C32.5257 45.0906 32.7882 44.7681 33.0282 44.4456C32.9757 43.3656 33.1932 42.6456 33.6807 41.4906H39.1632C39.3132 42.0981 39.3882 42.6831 39.5907 43.2306C39.6807 43.4556 39.7782 43.6881 39.7407 43.9131C39.6882 44.6106 39.9057 45.1656 40.6932 45.4281C40.8807 45.4506 41.1582 45.4506 41.4732 45.4506L41.4807 45.4431ZM45.8457 45.4431C46.3482 45.4056 46.9257 45.5556 47.3382 45.1431C47.4882 44.9556 47.6157 44.7606 47.8032 44.4981V38.6256C49.1682 38.6256 50.5107 38.5656 51.8307 38.6481C52.6332 38.6856 53.2857 38.4381 53.9232 38.0406C54.2232 37.8531 54.4857 37.5681 54.7407 37.2981C55.4307 36.6156 55.7682 35.7831 55.7832 34.7931V30.1506C55.7832 29.9256 55.7307 29.6781 55.6707 29.4531C55.4682 28.6356 55.0332 28.0281 54.4557 27.5031C53.7807 26.8806 53.0007 26.4981 52.0707 26.4981H45.8007C45.5982 26.7231 45.3882 26.9556 45.1482 27.1806V44.7906C45.3882 45.0006 45.6132 45.2256 45.8382 45.4506L45.8457 45.4431ZM59.2782 45.4431H63.1557C63.3807 45.2181 63.6057 44.9856 63.8307 44.7831V43.6431C63.5532 43.1106 63.1182 42.7881 62.5632 42.7356V29.2806C62.9757 29.0706 63.3282 28.8831 63.7407 28.6581C63.7932 28.1631 63.8307 27.6531 63.8682 27.2931C63.5682 26.9556 63.3657 26.7081 63.1932 26.5131H59.3907C59.0757 26.7981 58.8507 27.0081 58.5732 27.2706C58.6257 27.7281 58.7007 28.2381 58.7607 28.6731C59.2107 28.8981 59.5632 29.0931 59.8782 29.2581V42.7506C59.6907 42.7881 59.4882 42.7506 59.4132 42.8481C59.1507 43.1106 58.7007 43.1856 58.6107 43.6281V44.7681C58.8357 44.9931 59.0607 45.2256 59.2857 45.4506L59.2782 45.4431Z" fill="#66C8FF"/>
<path d="M38.1775 38.5795C37.075 38.617 35.92 38.6395 34.765 38.677C34.7275 38.677 34.675 38.752 34.5625 38.8495C34.5775 37.672 35.2375 36.727 35.305 35.647C35.8675 34.702 35.92 33.5845 36.295 32.5195C36.4075 32.632 36.5725 32.7445 36.5725 32.842C36.5875 33.6595 37.06 34.357 37.21 35.137C37.3225 35.6695 37.6225 36.1795 37.6975 36.712C37.7725 37.3945 38.2225 37.9045 38.185 38.587L38.1775 38.5795Z" fill="#66C8FF"/>
<path d="M53.1903 34.9067C53.0628 35.1167 52.9503 35.3267 52.8003 35.5142C52.5378 35.8142 52.2003 35.9867 51.7728 35.9717C50.4678 35.9492 49.1628 35.9717 47.8203 35.9717V29.1467C49.1853 29.1467 50.5803 29.1242 51.9603 29.1467C52.6128 29.1692 53.1753 29.8517 53.1903 30.5717V34.9142V34.9067Z" fill="#66C8FF"/>
</g>
<path d="M11.8957 93V81.12H16.0357C16.6357 81.12 17.1817 81.168 17.6737 81.264C18.1777 81.36 18.6217 81.504 19.0057 81.696C19.4017 81.888 19.7317 82.122 19.9957 82.398C20.2717 82.674 20.4757 82.998 20.6077 83.37C20.7517 83.73 20.8237 84.132 20.8237 84.576C20.8237 84.996 20.7577 85.38 20.6257 85.728C20.5057 86.076 20.3197 86.382 20.0677 86.646C19.8157 86.91 19.5037 87.126 19.1317 87.294C18.7597 87.45 18.3277 87.558 17.8357 87.618V87.852C18.2677 87.9 18.6457 88.014 18.9697 88.194C19.2937 88.374 19.5697 88.638 19.7977 88.986C20.0257 89.322 20.2237 89.772 20.3917 90.336L21.1477 93H19.3657L18.7537 90.57C18.6457 90.078 18.4597 89.682 18.1957 89.382C17.9437 89.082 17.6257 88.86 17.2417 88.716C16.8577 88.572 16.4077 88.5 15.8917 88.5H13.5517V93H11.8957ZM13.5517 87.15H15.8917C16.9597 87.15 17.7637 86.958 18.3037 86.574C18.8557 86.19 19.1317 85.602 19.1317 84.81C19.1317 84.018 18.8677 83.436 18.3397 83.064C17.8237 82.68 17.0197 82.488 15.9277 82.488H13.5517V87.15ZM23.6027 93V81.12H25.2587V93H23.6027ZM24.4487 93V91.578H31.9367V93H24.4487ZM24.4487 87.6V86.268H31.0907V87.6H24.4487ZM24.4487 82.524V81.12H31.9187V82.524H24.4487ZM38.29 93.234C37.498 93.234 36.802 93.15 36.202 92.982C35.614 92.814 35.116 92.568 34.708 92.244C34.312 91.908 34.018 91.5 33.826 91.02C33.634 90.54 33.55 89.982 33.574 89.346L35.068 89.022C35.02 89.646 35.122 90.168 35.374 90.588C35.626 91.008 36.01 91.326 36.526 91.542C37.042 91.746 37.648 91.848 38.344 91.848C39.016 91.848 39.586 91.764 40.054 91.596C40.522 91.428 40.87 91.194 41.098 90.894C41.338 90.594 41.458 90.252 41.458 89.868C41.458 89.436 41.32 89.094 41.044 88.842C40.768 88.59 40.396 88.398 39.928 88.266C39.472 88.122 38.962 87.99 38.398 87.87C37.846 87.75 37.294 87.612 36.742 87.456C36.19 87.3 35.692 87.102 35.248 86.862C34.816 86.61 34.462 86.286 34.186 85.89C33.922 85.482 33.79 84.966 33.79 84.342C33.79 83.634 33.964 83.022 34.312 82.506C34.672 81.99 35.176 81.594 35.824 81.318C36.472 81.03 37.234 80.886 38.11 80.886C38.974 80.886 39.742 81.024 40.414 81.3C41.098 81.576 41.638 81.984 42.034 82.524C42.43 83.052 42.64 83.706 42.664 84.486L41.116 84.864C41.116 84.432 41.038 84.054 40.882 83.73C40.738 83.394 40.534 83.124 40.27 82.92C40.006 82.704 39.688 82.542 39.316 82.434C38.944 82.314 38.536 82.254 38.092 82.254C37.552 82.254 37.078 82.338 36.67 82.506C36.262 82.674 35.944 82.902 35.716 83.19C35.488 83.478 35.374 83.82 35.374 84.216C35.374 84.684 35.536 85.056 35.86 85.332C36.196 85.596 36.628 85.806 37.156 85.962C37.684 86.118 38.248 86.262 38.848 86.394C39.364 86.502 39.868 86.634 40.36 86.79C40.864 86.934 41.32 87.132 41.728 87.384C42.136 87.624 42.46 87.942 42.7 88.338C42.94 88.734 43.06 89.238 43.06 89.85C43.06 90.534 42.88 91.128 42.52 91.632C42.172 92.136 41.644 92.532 40.936 92.82C40.228 93.096 39.346 93.234 38.29 93.234ZM47.8493 93V81.12H49.5053V93H47.8493ZM44.2313 82.56V81.12H53.1233V82.56H44.2313ZM52.7776 88.968V87.456H57.5656V88.968H52.7776ZM58.4365 93L62.6125 81.12H65.0245L69.2005 93H67.4185L63.9265 82.506H63.7105L60.2185 93H58.4365ZM60.4165 90.336V89.076H67.4185V90.336H60.4165ZM72.1566 89.364V87.96H75.0726C76.2126 87.96 77.0706 87.744 77.6466 87.312C78.2226 86.868 78.5106 86.16 78.5106 85.188C78.5106 84.288 78.2406 83.616 77.7006 83.172C77.1726 82.716 76.3566 82.488 75.2526 82.488H72.1566V81.12H75.2886C76.0686 81.12 76.7586 81.21 77.3586 81.39C77.9706 81.57 78.4866 81.834 78.9066 82.182C79.3266 82.53 79.6446 82.962 79.8606 83.478C80.0886 83.982 80.2026 84.57 80.2026 85.242C80.2026 86.13 79.9986 86.88 79.5906 87.492C79.1826 88.104 78.5826 88.572 77.7906 88.896C76.9986 89.208 76.0266 89.364 74.8746 89.364H72.1566ZM71.2746 93V81.12H72.9306V93H71.2746ZM82.4367 93V81.12H84.1107V93H82.4367Z" fill="#F8F9FA"/>
<defs>
<clipPath id="clip0_2743_5695">
<rect width="72" height="72" fill="white" transform="translate(12)"/>
</clipPath>
</defs>
</svg>
