<svg width="96" height="98" viewBox="0 0 96 98" fill="none" xmlns="http://www.w3.org/2000/svg">
<g style="mix-blend-mode:luminosity" clip-path="url(#clip0_2743_5682)">
<g clip-path="url(#clip1_2743_5682)">
<path d="M73.35 0H22.65C16.7682 0 12 4.76817 12 10.65V61.35C12 67.2318 16.7682 72 22.65 72H73.35C79.2318 72 84 67.2318 84 61.35V10.65C84 4.76817 79.2318 0 73.35 0Z" fill="#F8F9FA"/>
<path d="M73.35 4.5H22.65C19.2534 4.5 16.5 7.25345 16.5 10.65V61.35C16.5 64.7466 19.2534 67.5 22.65 67.5H73.35C76.7466 67.5 79.5 64.7466 79.5 61.35V10.65C79.5 7.25345 76.7466 4.5 73.35 4.5Z" fill="#3178C6"/>
<path d="M73.35 4.5H22.65C19.2534 4.5 16.5 7.25345 16.5 10.65V61.35C16.5 64.7466 19.2534 67.5 22.65 67.5H73.35C76.7466 67.5 79.5 64.7466 79.5 61.35V10.65C79.5 7.25345 76.7466 4.5 73.35 4.5Z" fill="#3178C6"/>
<path fill-rule="evenodd" clip-rule="evenodd" d="M55.5172 54.5945V60.7445C56.4922 61.2695 57.6922 61.6445 59.0422 61.8695C60.3922 62.0945 61.8172 62.2445 63.3922 62.2445C64.9672 62.2445 66.2422 62.0945 67.5922 61.7945C68.9422 61.4945 70.0672 61.0445 71.1172 60.3695C72.0922 59.6945 72.9172 58.8695 73.5172 57.8195C74.1172 56.7695 74.4172 55.4945 74.4172 53.9195C74.4172 52.3445 74.2672 51.8195 73.8922 50.9945C73.5172 50.1695 73.0672 49.4195 72.4672 48.7445C71.8672 48.0695 71.1172 47.4695 70.2172 47.0195C69.3172 46.5695 68.3422 46.0445 67.2172 45.5195C66.3922 45.2195 65.7172 44.8445 65.0422 44.5445C64.3672 44.2445 63.8422 43.9445 63.3922 43.5695C62.9422 43.2695 62.5672 42.8945 62.3422 42.5195C62.1172 42.1445 61.9672 41.7695 61.9672 41.2445C61.9672 40.7195 62.0422 40.4195 62.2672 40.1195C62.4922 39.8195 62.7922 39.5195 63.1672 39.2195C63.5422 38.9945 64.0672 38.7695 64.6672 38.6195C65.2672 38.4695 65.8672 38.3945 66.6172 38.3945C67.3672 38.3945 67.6672 38.3945 68.2672 38.5445C68.8672 38.6195 69.3922 38.7695 69.9922 38.9195C70.5922 39.0695 71.1172 39.2945 71.6422 39.5195C72.1672 39.7445 72.6922 40.0445 73.1422 40.3445V34.5695C72.2422 34.1945 71.1922 33.9695 70.0672 33.7445C68.9422 33.5195 67.6672 33.5195 66.2422 33.5195C64.8172 33.5195 63.3922 33.6695 62.1172 33.9695C60.8422 34.2695 59.6422 34.7945 58.6672 35.4695C57.6922 36.1445 56.8672 36.9695 56.3422 38.0195C55.7422 39.0695 55.4422 40.2695 55.4422 41.6945C55.4422 43.1195 55.9672 45.0695 57.0172 46.4195C58.0672 47.6945 59.7172 48.8195 61.8172 49.7195C62.6422 50.0945 63.4672 50.3945 64.2172 50.7695C64.9672 51.1445 65.5672 51.4445 66.0922 51.8195C66.6172 52.1945 67.0672 52.5695 67.3672 53.0195C67.6672 53.4695 67.8172 53.9195 67.8172 54.4445C67.8172 54.9695 67.7422 55.1945 67.5172 55.5695C67.2922 55.9445 67.0672 56.1695 66.6172 56.4695C66.1672 56.7695 65.7172 56.9195 65.1172 57.0695C64.5172 57.2195 63.8422 57.2945 63.0922 57.2945C61.7422 57.2945 60.4672 57.0695 59.1172 56.6195C57.8422 56.1695 56.5672 55.4195 55.4422 54.5195L55.5172 54.5945ZM45.1672 39.4445H53.0422V34.4195H30.9922V39.4445H38.8672V61.9445H45.0922V39.4445H45.1672Z" fill="#F8F9FA"/>
</g>
</g>
<path d="M6.33851 93V81.12H7.99451V93H6.33851ZM2.72051 82.56V81.12H11.6125V82.56H2.72051ZM16.2163 96.132C15.7243 96.132 15.2383 96.072 14.7583 95.952C14.2903 95.844 13.8583 95.676 13.4623 95.448C13.0663 95.22 12.7423 94.926 12.4903 94.566L13.3183 93.378C13.5943 93.786 13.9843 94.098 14.4883 94.314C14.9923 94.53 15.5443 94.638 16.1443 94.638C16.8163 94.638 17.3743 94.488 17.8183 94.188C18.2743 93.9 18.6163 93.45 18.8443 92.838C19.0723 92.214 19.1923 91.44 19.2043 90.516L19.4023 88.644H19.0603C18.9283 89.52 18.7183 90.222 18.4303 90.75C18.1543 91.266 17.8063 91.638 17.3863 91.866C16.9783 92.094 16.5043 92.208 15.9643 92.208C15.2923 92.208 14.7223 92.04 14.2543 91.704C13.7983 91.356 13.4503 90.852 13.2103 90.192C12.9703 89.52 12.8503 88.704 12.8503 87.744V83.694H14.4883V87.384C14.4883 88.548 14.6503 89.406 14.9743 89.958C15.3103 90.498 15.8083 90.768 16.4683 90.768C16.8283 90.768 17.1523 90.678 17.4403 90.498C17.7283 90.318 17.9743 90.054 18.1783 89.706C18.3943 89.358 18.5623 88.92 18.6823 88.392C18.8143 87.852 18.8983 87.228 18.9343 86.52V83.694H20.5723V90.606C20.5723 91.338 20.5183 91.998 20.4103 92.586C20.3023 93.174 20.1283 93.684 19.8883 94.116C19.6603 94.56 19.3723 94.932 19.0243 95.232C18.6763 95.532 18.2683 95.754 17.8003 95.898C17.3323 96.054 16.8043 96.132 16.2163 96.132ZM23.3976 95.916V88.356V83.694H24.8736L24.7836 86.088H25.0536C25.1976 85.56 25.3956 85.104 25.6476 84.72C25.9116 84.324 26.2476 84.018 26.6556 83.802C27.0636 83.574 27.5556 83.46 28.1316 83.46C28.9836 83.46 29.6916 83.676 30.2556 84.108C30.8316 84.528 31.2636 85.11 31.5516 85.854C31.8396 86.586 31.9836 87.42 31.9836 88.356C31.9836 89.292 31.8396 90.126 31.5516 90.858C31.2636 91.59 30.8376 92.172 30.2736 92.604C29.7216 93.024 29.0436 93.234 28.2396 93.234C27.5916 93.234 27.0516 93.102 26.6196 92.838C26.1996 92.562 25.8636 92.202 25.6116 91.758C25.3596 91.314 25.1616 90.852 25.0176 90.372H24.7116C24.7836 90.696 24.8436 91.032 24.8916 91.38C24.9396 91.728 24.9756 92.076 24.9996 92.424C25.0356 92.76 25.0536 93.084 25.0536 93.396V95.916H23.3976ZM27.8256 91.812C28.3536 91.812 28.7976 91.662 29.1576 91.362C29.5176 91.05 29.7936 90.63 29.9856 90.102C30.1776 89.574 30.2736 88.98 30.2736 88.32C30.2736 87.612 30.1716 87.006 29.9676 86.502C29.7756 85.998 29.4996 85.608 29.1396 85.332C28.7796 85.044 28.3416 84.9 27.8256 84.9C27.3816 84.9 26.9856 85.002 26.6376 85.206C26.3016 85.398 26.0136 85.662 25.7736 85.998C25.5336 86.322 25.3476 86.682 25.2156 87.078C25.0956 87.462 25.0356 87.846 25.0356 88.23V88.446C25.0356 88.686 25.0716 88.956 25.1436 89.256C25.2156 89.544 25.3236 89.838 25.4676 90.138C25.6116 90.438 25.7916 90.714 26.0076 90.966C26.2356 91.218 26.4996 91.422 26.7996 91.578C27.0996 91.734 27.4416 91.812 27.8256 91.812ZM38.3623 93.234C37.6303 93.234 36.9823 93.126 36.4183 92.91C35.8663 92.682 35.3983 92.358 35.0143 91.938C34.6303 91.518 34.3423 91.02 34.1503 90.444C33.9583 89.868 33.8623 89.22 33.8623 88.5C33.8623 87.768 33.9583 87.096 34.1503 86.484C34.3423 85.872 34.6243 85.338 34.9963 84.882C35.3683 84.426 35.8243 84.078 36.3643 83.838C36.9043 83.586 37.5223 83.46 38.2183 83.46C38.8303 83.46 39.3883 83.562 39.8923 83.766C40.3963 83.97 40.8223 84.288 41.1703 84.72C41.5303 85.14 41.8003 85.674 41.9803 86.322C42.1603 86.958 42.2323 87.708 42.1963 88.572L34.8883 88.626V87.51L41.2063 87.456L40.6483 88.212C40.7083 87.456 40.6363 86.832 40.4323 86.34C40.2283 85.848 39.9343 85.476 39.5503 85.224C39.1783 84.972 38.7343 84.846 38.2183 84.846C37.6663 84.846 37.1803 84.99 36.7603 85.278C36.3403 85.566 36.0163 85.98 35.7883 86.52C35.5723 87.06 35.4643 87.714 35.4643 88.482C35.4643 89.586 35.7103 90.432 36.2023 91.02C36.6943 91.596 37.4263 91.884 38.3983 91.884C38.7703 91.884 39.0943 91.842 39.3703 91.758C39.6583 91.662 39.8983 91.536 40.0903 91.38C40.2943 91.212 40.4563 91.02 40.5763 90.804C40.7083 90.588 40.8103 90.354 40.8823 90.102L42.3223 90.444C42.2143 90.876 42.0463 91.266 41.8183 91.614C41.6023 91.95 41.3263 92.238 40.9903 92.478C40.6663 92.718 40.2883 92.904 39.8563 93.036C39.4243 93.168 38.9263 93.234 38.3623 93.234ZM48.8105 93.234C48.0185 93.234 47.3225 93.15 46.7225 92.982C46.1345 92.814 45.6365 92.568 45.2285 92.244C44.8325 91.908 44.5385 91.5 44.3465 91.02C44.1545 90.54 44.0705 89.982 44.0945 89.346L45.5885 89.022C45.5405 89.646 45.6425 90.168 45.8945 90.588C46.1465 91.008 46.5305 91.326 47.0465 91.542C47.5625 91.746 48.1685 91.848 48.8645 91.848C49.5365 91.848 50.1065 91.764 50.5745 91.596C51.0425 91.428 51.3905 91.194 51.6185 90.894C51.8585 90.594 51.9785 90.252 51.9785 89.868C51.9785 89.436 51.8405 89.094 51.5645 88.842C51.2885 88.59 50.9165 88.398 50.4485 88.266C49.9925 88.122 49.4825 87.99 48.9185 87.87C48.3665 87.75 47.8145 87.612 47.2625 87.456C46.7105 87.3 46.2125 87.102 45.7685 86.862C45.3365 86.61 44.9825 86.286 44.7065 85.89C44.4425 85.482 44.3105 84.966 44.3105 84.342C44.3105 83.634 44.4845 83.022 44.8325 82.506C45.1925 81.99 45.6965 81.594 46.3445 81.318C46.9925 81.03 47.7545 80.886 48.6305 80.886C49.4945 80.886 50.2625 81.024 50.9345 81.3C51.6185 81.576 52.1585 81.984 52.5545 82.524C52.9505 83.052 53.1605 83.706 53.1845 84.486L51.6365 84.864C51.6365 84.432 51.5585 84.054 51.4025 83.73C51.2585 83.394 51.0545 83.124 50.7905 82.92C50.5265 82.704 50.2085 82.542 49.8365 82.434C49.4645 82.314 49.0565 82.254 48.6125 82.254C48.0725 82.254 47.5985 82.338 47.1905 82.506C46.7825 82.674 46.4645 82.902 46.2365 83.19C46.0085 83.478 45.8945 83.82 45.8945 84.216C45.8945 84.684 46.0565 85.056 46.3805 85.332C46.7165 85.596 47.1485 85.806 47.6765 85.962C48.2045 86.118 48.7685 86.262 49.3685 86.394C49.8845 86.502 50.3885 86.634 50.8805 86.79C51.3845 86.934 51.8405 87.132 52.2485 87.384C52.6565 87.624 52.9805 87.942 53.2205 88.338C53.4605 88.734 53.5805 89.238 53.5805 89.85C53.5805 90.534 53.4005 91.128 53.0405 91.632C52.6925 92.136 52.1645 92.532 51.4565 92.82C50.7485 93.096 49.8665 93.234 48.8105 93.234ZM59.9483 93.234C59.1323 93.234 58.4363 93.102 57.8603 92.838C57.2963 92.574 56.8343 92.22 56.4743 91.776C56.1263 91.332 55.8683 90.822 55.7003 90.246C55.5443 89.67 55.4663 89.07 55.4663 88.446C55.4663 87.762 55.5563 87.12 55.7363 86.52C55.9163 85.92 56.1863 85.392 56.5463 84.936C56.9183 84.468 57.3743 84.108 57.9143 83.856C58.4663 83.592 59.1083 83.46 59.8403 83.46C60.5483 83.46 61.1723 83.586 61.7123 83.838C62.2523 84.078 62.6903 84.42 63.0263 84.864C63.3743 85.308 63.5963 85.836 63.6923 86.448L62.1263 86.88C62.1023 86.544 62.0003 86.22 61.8203 85.908C61.6523 85.596 61.4003 85.344 61.0643 85.152C60.7283 84.948 60.3143 84.846 59.8223 84.846C59.3543 84.846 58.9523 84.936 58.6163 85.116C58.2923 85.296 58.0163 85.548 57.7883 85.872C57.5723 86.196 57.4043 86.574 57.2843 87.006C57.1763 87.438 57.1223 87.906 57.1223 88.41C57.1223 89.106 57.2183 89.712 57.4103 90.228C57.6143 90.744 57.9263 91.146 58.3463 91.434C58.7663 91.722 59.3063 91.866 59.9663 91.866C60.4583 91.866 60.8783 91.782 61.2263 91.614C61.5743 91.434 61.8503 91.188 62.0543 90.876C62.2583 90.552 62.3903 90.174 62.4503 89.742L63.9623 90.084C63.8783 90.6 63.7223 91.056 63.4943 91.452C63.2663 91.848 62.9783 92.178 62.6303 92.442C62.2823 92.694 61.8803 92.886 61.4243 93.018C60.9803 93.162 60.4883 93.234 59.9483 93.234ZM65.8312 93V87.96V83.694H67.3072L67.1632 86.934H67.4692C67.5772 86.226 67.7452 85.614 67.9732 85.098C68.2012 84.582 68.5012 84.18 68.8732 83.892C69.2572 83.604 69.7312 83.46 70.2952 83.46C70.4152 83.46 70.5532 83.472 70.7092 83.496C70.8652 83.508 71.0452 83.55 71.2492 83.622L71.1592 85.332C70.9792 85.26 70.7992 85.212 70.6192 85.188C70.4392 85.152 70.2652 85.134 70.0972 85.134C69.6292 85.134 69.2212 85.284 68.8732 85.584C68.5372 85.884 68.2552 86.292 68.0272 86.808C67.7992 87.312 67.6132 87.882 67.4692 88.518V93H65.8312ZM73.0386 93V83.694H74.6766V93H73.0386ZM73.8666 82.074C73.4826 82.074 73.1946 81.996 73.0026 81.84C72.8106 81.684 72.7146 81.45 72.7146 81.138C72.7146 80.826 72.8106 80.592 73.0026 80.436C73.1946 80.28 73.4766 80.202 73.8486 80.202C74.2326 80.202 74.5206 80.28 74.7126 80.436C74.9046 80.592 75.0006 80.826 75.0006 81.138C75.0006 81.438 74.9046 81.672 74.7126 81.84C74.5206 81.996 74.2386 82.074 73.8666 82.074ZM77.5206 95.916V88.356V83.694H78.9966L78.9066 86.088H79.1766C79.3206 85.56 79.5186 85.104 79.7706 84.72C80.0346 84.324 80.3706 84.018 80.7786 83.802C81.1866 83.574 81.6786 83.46 82.2546 83.46C83.1066 83.46 83.8146 83.676 84.3786 84.108C84.9546 84.528 85.3866 85.11 85.6746 85.854C85.9626 86.586 86.1066 87.42 86.1066 88.356C86.1066 89.292 85.9626 90.126 85.6746 90.858C85.3866 91.59 84.9606 92.172 84.3966 92.604C83.8446 93.024 83.1666 93.234 82.3626 93.234C81.7146 93.234 81.1746 93.102 80.7426 92.838C80.3226 92.562 79.9866 92.202 79.7346 91.758C79.4826 91.314 79.2846 90.852 79.1406 90.372H78.8346C78.9066 90.696 78.9666 91.032 79.0146 91.38C79.0626 91.728 79.0986 92.076 79.1226 92.424C79.1586 92.76 79.1766 93.084 79.1766 93.396V95.916H77.5206ZM81.9486 91.812C82.4766 91.812 82.9206 91.662 83.2806 91.362C83.6406 91.05 83.9166 90.63 84.1086 90.102C84.3006 89.574 84.3966 88.98 84.3966 88.32C84.3966 87.612 84.2946 87.006 84.0906 86.502C83.8986 85.998 83.6226 85.608 83.2626 85.332C82.9026 85.044 82.4646 84.9 81.9486 84.9C81.5046 84.9 81.1086 85.002 80.7606 85.206C80.4246 85.398 80.1366 85.662 79.8966 85.998C79.6566 86.322 79.4706 86.682 79.3386 87.078C79.2186 87.462 79.1586 87.846 79.1586 88.23V88.446C79.1586 88.686 79.1946 88.956 79.2666 89.256C79.3386 89.544 79.4466 89.838 79.5906 90.138C79.7346 90.438 79.9146 90.714 80.1306 90.966C80.3586 91.218 80.6226 91.422 80.9226 91.578C81.2226 91.734 81.5646 91.812 81.9486 91.812ZM91.3698 93.18C90.5058 93.18 89.8638 92.946 89.4438 92.478C89.0238 92.01 88.8138 91.296 88.8138 90.336V85.062H87.4098L87.4278 83.694H88.3098C88.6098 83.694 88.8258 83.64 88.9578 83.532C89.1018 83.424 89.1858 83.244 89.2098 82.992L89.3898 81.588H90.3978V83.694H93.0798V85.08H90.3978V90.3C90.3978 90.78 90.5058 91.128 90.7218 91.344C90.9498 91.548 91.2738 91.65 91.6938 91.65C91.9218 91.65 92.1558 91.62 92.3958 91.56C92.6478 91.5 92.8938 91.38 93.1338 91.2V92.838C92.7858 92.97 92.4618 93.06 92.1618 93.108C91.8738 93.156 91.6098 93.18 91.3698 93.18Z" fill="#F8F9FA"/>
<defs>
<clipPath id="clip0_2743_5682">
<rect width="72" height="72" fill="white" transform="translate(12)"/>
</clipPath>
<clipPath id="clip1_2743_5682">
<rect width="72" height="72" fill="white" transform="translate(12)"/>
</clipPath>
</defs>
</svg>
