<svg width="96" height="98" viewBox="0 0 96 98" fill="none" xmlns="http://www.w3.org/2000/svg">
<g style="mix-blend-mode:luminosity" clip-path="url(#clip0_2743_5676)">
<path d="M48.1844 72C47.8094 72 47.3594 72 46.9844 71.85L24.3344 65.55C22.5344 65.025 21.2594 63.45 21.0344 61.65L16.0094 4.95C15.9344 3.675 16.3094 2.475 17.1344 1.5C17.9594 0.6 19.1594 0 20.4344 0H76.0094C77.2844 0 78.4844 0.525 79.3094 1.5C80.1344 2.4 80.5844 3.675 80.4344 4.95L75.4094 61.65C75.2594 63.525 73.9094 65.1 72.1094 65.55L49.3844 71.85C49.0094 71.925 48.5594 72 48.1844 72Z" fill="#F8F9FA"/>
<path d="M25.4625 61.2L20.4375 4.5H76.0125L70.9875 61.2L48.2625 67.5L25.6125 61.2H25.4625Z" fill="#264DE4"/>
<path d="M66.5547 57.6063L70.9047 9.15625H48.1797V62.7063L66.5547 57.6063Z" fill="#2965F1"/>
<path d="M31.9703 30.143L32.5703 37.118H48.0953V30.143H31.8953H31.9703ZM31.3703 23.018H48.1703V16.043H30.6953L31.2953 23.018H31.3703ZM48.1703 48.218L40.4453 46.118L39.9203 40.568H32.9453L33.9203 51.518L48.1703 55.493V48.218Z" fill="#EBEBEB"/>
<path d="M48.1797 30.1555V37.1305H56.7297L55.9047 46.1305L48.1797 48.2305V55.4305L62.4297 51.4555V50.2555C62.5047 50.2555 64.1547 31.9555 64.1547 31.9555L64.3047 30.0805L65.5797 15.9805H48.1797V22.9555H58.0047L57.4047 30.0805H48.2547L48.1797 30.1555Z" fill="#F8F9FA"/>
</g>
<path d="M36.8952 93.234C36.0432 93.234 35.2752 93.102 34.5912 92.838C33.9192 92.574 33.3492 92.184 32.8812 91.668C32.4132 91.152 32.0532 90.522 31.8012 89.778C31.5612 89.022 31.4412 88.164 31.4412 87.204C31.4412 86.232 31.5672 85.362 31.8192 84.594C32.0712 83.814 32.4312 83.148 32.8992 82.596C33.3672 82.044 33.9312 81.624 34.5912 81.336C35.2512 81.036 35.9892 80.886 36.8052 80.886C37.4292 80.886 38.0052 80.976 38.5332 81.156C39.0612 81.324 39.5172 81.576 39.9012 81.912C40.2972 82.236 40.6032 82.632 40.8192 83.1C41.0352 83.568 41.1492 84.09 41.1612 84.666L39.5952 85.062C39.6072 84.45 39.4812 83.946 39.2172 83.55C38.9532 83.142 38.6052 82.836 38.1732 82.632C37.7412 82.428 37.2732 82.326 36.7692 82.326C36.3012 82.326 35.8452 82.422 35.4012 82.614C34.9692 82.794 34.5852 83.082 34.2492 83.478C33.9132 83.862 33.6432 84.36 33.4392 84.972C33.2472 85.572 33.1512 86.298 33.1512 87.15C33.1512 88.242 33.3072 89.124 33.6192 89.796C33.9432 90.468 34.3932 90.966 34.9692 91.29C35.5452 91.602 36.2112 91.758 36.9672 91.758C37.6992 91.758 38.2872 91.626 38.7312 91.362C39.1752 91.086 39.5052 90.708 39.7212 90.228C39.9372 89.736 40.0632 89.172 40.0992 88.536L41.5752 88.806C41.5632 89.406 41.4672 89.976 41.2872 90.516C41.1072 91.056 40.8312 91.53 40.4592 91.938C40.0872 92.346 39.6072 92.664 39.0192 92.892C38.4312 93.12 37.7232 93.234 36.8952 93.234ZM48.3359 93.234C47.5439 93.234 46.8479 93.15 46.2479 92.982C45.6599 92.814 45.1619 92.568 44.7539 92.244C44.3579 91.908 44.0639 91.5 43.8719 91.02C43.6799 90.54 43.5959 89.982 43.6199 89.346L45.1139 89.022C45.0659 89.646 45.1679 90.168 45.4199 90.588C45.6719 91.008 46.0559 91.326 46.5719 91.542C47.0879 91.746 47.6939 91.848 48.3899 91.848C49.0619 91.848 49.6319 91.764 50.0999 91.596C50.5679 91.428 50.9159 91.194 51.1439 90.894C51.3839 90.594 51.5039 90.252 51.5039 89.868C51.5039 89.436 51.3659 89.094 51.0899 88.842C50.8139 88.59 50.4419 88.398 49.9739 88.266C49.5179 88.122 49.0079 87.99 48.4439 87.87C47.8919 87.75 47.3399 87.612 46.7879 87.456C46.2359 87.3 45.7379 87.102 45.2939 86.862C44.8619 86.61 44.5079 86.286 44.2319 85.89C43.9679 85.482 43.8359 84.966 43.8359 84.342C43.8359 83.634 44.0099 83.022 44.3579 82.506C44.7179 81.99 45.2219 81.594 45.8699 81.318C46.5179 81.03 47.2799 80.886 48.1559 80.886C49.0199 80.886 49.7879 81.024 50.4599 81.3C51.1439 81.576 51.6839 81.984 52.0799 82.524C52.4759 83.052 52.6859 83.706 52.7099 84.486L51.1619 84.864C51.1619 84.432 51.0839 84.054 50.9279 83.73C50.7839 83.394 50.5799 83.124 50.3159 82.92C50.0519 82.704 49.7339 82.542 49.3619 82.434C48.9899 82.314 48.5819 82.254 48.1379 82.254C47.5979 82.254 47.1239 82.338 46.7159 82.506C46.3079 82.674 45.9899 82.902 45.7619 83.19C45.5339 83.478 45.4199 83.82 45.4199 84.216C45.4199 84.684 45.5819 85.056 45.9059 85.332C46.2419 85.596 46.6739 85.806 47.2019 85.962C47.7299 86.118 48.2939 86.262 48.8939 86.394C49.4099 86.502 49.9139 86.634 50.4059 86.79C50.9099 86.934 51.3659 87.132 51.7739 87.384C52.1819 87.624 52.5059 87.942 52.7459 88.338C52.9859 88.734 53.1059 89.238 53.1059 89.85C53.1059 90.534 52.9259 91.128 52.5659 91.632C52.2179 92.136 51.6899 92.532 50.9819 92.82C50.2739 93.096 49.3919 93.234 48.3359 93.234ZM59.955 93.234C59.163 93.234 58.467 93.15 57.867 92.982C57.279 92.814 56.781 92.568 56.373 92.244C55.977 91.908 55.683 91.5 55.491 91.02C55.299 90.54 55.215 89.982 55.239 89.346L56.733 89.022C56.685 89.646 56.787 90.168 57.039 90.588C57.291 91.008 57.675 91.326 58.191 91.542C58.707 91.746 59.313 91.848 60.009 91.848C60.681 91.848 61.251 91.764 61.719 91.596C62.187 91.428 62.535 91.194 62.763 90.894C63.003 90.594 63.123 90.252 63.123 89.868C63.123 89.436 62.985 89.094 62.709 88.842C62.433 88.59 62.061 88.398 61.593 88.266C61.137 88.122 60.627 87.99 60.063 87.87C59.511 87.75 58.959 87.612 58.407 87.456C57.855 87.3 57.357 87.102 56.913 86.862C56.481 86.61 56.127 86.286 55.851 85.89C55.587 85.482 55.455 84.966 55.455 84.342C55.455 83.634 55.629 83.022 55.977 82.506C56.337 81.99 56.841 81.594 57.489 81.318C58.137 81.03 58.899 80.886 59.775 80.886C60.639 80.886 61.407 81.024 62.079 81.3C62.763 81.576 63.303 81.984 63.699 82.524C64.095 83.052 64.305 83.706 64.329 84.486L62.781 84.864C62.781 84.432 62.703 84.054 62.547 83.73C62.403 83.394 62.199 83.124 61.935 82.92C61.671 82.704 61.353 82.542 60.981 82.434C60.609 82.314 60.201 82.254 59.757 82.254C59.217 82.254 58.743 82.338 58.335 82.506C57.927 82.674 57.609 82.902 57.381 83.19C57.153 83.478 57.039 83.82 57.039 84.216C57.039 84.684 57.201 85.056 57.525 85.332C57.861 85.596 58.293 85.806 58.821 85.962C59.349 86.118 59.913 86.262 60.513 86.394C61.029 86.502 61.533 86.634 62.025 86.79C62.529 86.934 62.985 87.132 63.393 87.384C63.801 87.624 64.125 87.942 64.365 88.338C64.605 88.734 64.725 89.238 64.725 89.85C64.725 90.534 64.545 91.128 64.185 91.632C63.837 92.136 63.309 92.532 62.601 92.82C61.893 93.096 61.011 93.234 59.955 93.234Z" fill="#F8F9FA"/>
<defs>
<clipPath id="clip0_2743_5676">
<rect width="72" height="72" fill="white" transform="translate(12)"/>
</clipPath>
</defs>
</svg>
