<svg width="96" height="98" viewBox="0 0 96 98" fill="none" xmlns="http://www.w3.org/2000/svg">
<g style="mix-blend-mode:luminosity" clip-path="url(#clip0_2743_5689)">
<path d="M48.3483 71.8425C46.8483 71.8425 45.3558 71.4676 44.0808 70.7176L23.8758 59.4163L23.5758 59.2663C23.0508 58.9664 22.5258 58.6664 22.1508 58.2164C21.1758 57.0915 20.8008 55.6742 21.1008 54.2493L28.8108 5.01698C29.1858 2.54973 31.1283 0.524945 33.6033 0.0749922H33.6783C33.9783 0.0749922 34.3533 0 34.6533 0C35.5533 0 36.4533 0.224977 37.1958 0.599937C38.3208 1.12488 39.2883 2.02479 39.8883 3.14217L43.9308 10.7764C45.0558 9.5765 46.6233 8.83408 48.2733 8.83408C49.9233 8.83408 48.2733 8.83408 48.3483 8.83408C50.5158 8.83408 52.4658 10.1089 53.5158 11.9763L56.5083 17.6607L59.5758 14.5935C60.4008 13.7686 61.3758 13.2436 62.4183 13.0186C62.8683 12.9437 63.3183 12.8687 63.7683 12.8687C64.2183 12.8687 63.9183 12.8687 63.9933 12.8687C64.5183 12.8687 65.1183 13.0186 65.6433 13.1686C67.7358 13.8436 69.3108 15.6359 69.6858 17.8106L75.5958 54.5568C75.8958 56.2066 75.2208 57.849 73.8708 58.8989C73.7958 58.8989 73.6458 59.0488 73.5708 59.1238C73.4958 59.1238 73.4208 59.1988 73.2708 59.2738L52.4658 70.8751C51.1908 71.625 49.6983 72 48.1983 72L48.3483 71.85V71.8425Z" fill="#F8F9FA"/>
<path d="M25.5859 55.2902L33.2959 5.75034C33.3709 5.1504 33.8959 4.62546 34.4959 4.55047C35.0959 4.47547 35.6959 4.77544 35.9959 5.30039L44.0059 20.1938L47.2234 14.1345C47.4484 13.6845 47.9734 13.3845 48.4984 13.3845C49.0234 13.3845 49.5484 13.6845 49.7734 14.1345L71.4034 55.2227H25.6609L25.5859 55.2977V55.2902Z" fill="#FFA000"/>
<path d="M52.3084 35.9769L43.9984 20.1836L25.5859 55.2124L52.3084 35.902V35.9769Z" fill="#F57C00"/>
<path d="M71.3244 55.2949L65.4144 18.6238C65.3394 18.0988 64.9644 17.6489 64.4394 17.4989C63.9144 17.3489 63.3894 17.4989 63.0144 17.8738L25.6719 55.2949L46.3269 66.8962C47.6019 67.6461 49.1694 67.6461 50.5194 66.8962L71.3994 55.2949H71.3244Z" fill="#FFCA28"/>
<path d="M65.3331 18.6221C65.2581 18.0972 64.8831 17.6472 64.3581 17.4973C63.8331 17.3473 63.3081 17.4973 62.9331 17.8722L55.5231 25.2814L49.6881 14.2051C49.4631 13.7551 48.9381 13.4552 48.4131 13.4552C47.8881 13.4552 47.3631 13.7551 47.1381 14.2051L43.9206 20.2645L35.9181 5.37851C35.6181 4.85357 35.0181 4.5536 34.4181 4.62859C33.8181 4.70358 33.3681 5.22853 33.2181 5.82847L25.5156 55.3683L25.7406 55.5183L62.9406 18.3222C63.3156 17.9472 63.9156 17.7972 64.3656 17.9472C64.8156 18.0972 65.2656 18.5471 65.3406 19.0721L71.2506 55.4433L65.3406 18.6971V18.6221H65.3331ZM25.6656 55.2183L33.3006 6.12843C33.3756 5.5285 33.9006 5.00355 34.5006 4.92856C35.1006 4.85357 35.7006 5.15354 36.0006 5.67848L44.0106 20.5719L47.2281 14.5126C47.4531 14.0626 47.9781 13.7626 48.5031 13.7626C49.0281 13.7626 49.5531 14.0626 49.7781 14.5126L55.4631 25.3639L25.6656 55.2183Z" fill="white" fill-opacity="0.4"/>
<path opacity="0.2" d="M50.4334 66.5153C49.1584 67.2653 47.5909 67.2653 46.2409 66.5153L25.5859 54.9141V55.214L46.2409 66.8153C47.5159 67.5652 49.0834 67.5652 50.4334 66.8153L71.3134 55.214V54.9141L50.4334 66.5153Z" fill="#A52714"/>
<path d="M65.3284 18.6221C65.2534 18.0972 64.8784 17.6472 64.3534 17.4972C63.8284 17.3473 63.3034 17.4972 62.9284 17.8722L55.5184 25.2814L49.6834 14.2051C49.4584 13.7551 48.9334 13.4552 48.4084 13.4552C47.8834 13.4552 47.3584 13.7551 47.1334 14.2051L43.9909 20.2645L35.9884 5.37851C35.6884 4.85357 35.0884 4.5536 34.4884 4.62859C33.8884 4.70358 33.4384 5.22853 33.2884 5.82847L25.5859 55.2933L46.1659 66.8946C47.4409 67.6445 49.0084 67.6445 50.3584 66.8946L71.1634 55.2933L65.2534 18.6221H65.3284Z" fill="url(#paint0_linear_2743_5689)"/>
</g>
<path d="M13.1789 93V81.12H14.8349V93H13.1789ZM13.8269 87.906V86.484H20.6489V87.906H13.8269ZM13.8269 82.578V81.12H21.4229V82.578H13.8269ZM23.4068 93V83.694H25.0448V93H23.4068ZM24.2348 82.074C23.8508 82.074 23.5628 81.996 23.3708 81.84C23.1788 81.684 23.0828 81.45 23.0828 81.138C23.0828 80.826 23.1788 80.592 23.3708 80.436C23.5628 80.28 23.8448 80.202 24.2168 80.202C24.6008 80.202 24.8888 80.28 25.0808 80.436C25.2728 80.592 25.3688 80.826 25.3688 81.138C25.3688 81.438 25.2728 81.672 25.0808 81.84C24.8888 81.996 24.6068 82.074 24.2348 82.074ZM27.8888 93V87.96V83.694H29.3648L29.2208 86.934H29.5268C29.6348 86.226 29.8028 85.614 30.0308 85.098C30.2588 84.582 30.5588 84.18 30.9308 83.892C31.3148 83.604 31.7888 83.46 32.3528 83.46C32.4728 83.46 32.6108 83.472 32.7668 83.496C32.9228 83.508 33.1028 83.55 33.3068 83.622L33.2168 85.332C33.0368 85.26 32.8568 85.212 32.6768 85.188C32.4968 85.152 32.3228 85.134 32.1548 85.134C31.6868 85.134 31.2788 85.284 30.9308 85.584C30.5948 85.884 30.3128 86.292 30.0848 86.808C29.8568 87.312 29.6708 87.882 29.5268 88.518V93H27.8888ZM38.916 93.234C38.184 93.234 37.536 93.126 36.972 92.91C36.42 92.682 35.952 92.358 35.568 91.938C35.184 91.518 34.896 91.02 34.704 90.444C34.512 89.868 34.416 89.22 34.416 88.5C34.416 87.768 34.512 87.096 34.704 86.484C34.896 85.872 35.178 85.338 35.55 84.882C35.922 84.426 36.378 84.078 36.918 83.838C37.458 83.586 38.076 83.46 38.772 83.46C39.384 83.46 39.942 83.562 40.446 83.766C40.95 83.97 41.376 84.288 41.724 84.72C42.084 85.14 42.354 85.674 42.534 86.322C42.714 86.958 42.786 87.708 42.75 88.572L35.442 88.626V87.51L41.76 87.456L41.202 88.212C41.262 87.456 41.19 86.832 40.986 86.34C40.782 85.848 40.488 85.476 40.104 85.224C39.732 84.972 39.288 84.846 38.772 84.846C38.22 84.846 37.734 84.99 37.314 85.278C36.894 85.566 36.57 85.98 36.342 86.52C36.126 87.06 36.018 87.714 36.018 88.482C36.018 89.586 36.264 90.432 36.756 91.02C37.248 91.596 37.98 91.884 38.952 91.884C39.324 91.884 39.648 91.842 39.924 91.758C40.212 91.662 40.452 91.536 40.644 91.38C40.848 91.212 41.01 91.02 41.13 90.804C41.262 90.588 41.364 90.354 41.436 90.102L42.876 90.444C42.768 90.876 42.6 91.266 42.372 91.614C42.156 91.95 41.88 92.238 41.544 92.478C41.22 92.718 40.842 92.904 40.41 93.036C39.978 93.168 39.48 93.234 38.916 93.234ZM49.9042 93.234C49.3042 93.234 48.7882 93.114 48.3562 92.874C47.9362 92.634 47.5942 92.31 47.3302 91.902C47.0782 91.482 46.8862 91.008 46.7542 90.48H46.4662L46.5562 93H45.0802V88.41V80.4H46.7362V83.316C46.7362 83.628 46.7182 83.958 46.6822 84.306C46.6582 84.642 46.6162 84.99 46.5562 85.35C46.5082 85.71 46.4542 86.058 46.3942 86.394H46.7182C46.8502 85.89 47.0422 85.416 47.2942 84.972C47.5462 84.528 47.8822 84.168 48.3022 83.892C48.7342 83.616 49.2682 83.478 49.9042 83.478C50.6962 83.478 51.3682 83.688 51.9202 84.108C52.4842 84.516 52.9162 85.086 53.2162 85.818C53.5162 86.55 53.6662 87.402 53.6662 88.374C53.6662 89.31 53.5162 90.144 53.2162 90.876C52.9282 91.608 52.5022 92.184 51.9382 92.604C51.3862 93.024 50.7082 93.234 49.9042 93.234ZM49.5082 91.794C50.0242 91.794 50.4622 91.656 50.8222 91.38C51.1822 91.104 51.4582 90.708 51.6502 90.192C51.8542 89.676 51.9562 89.076 51.9562 88.392C51.9562 87.72 51.8602 87.126 51.6682 86.61C51.4762 86.082 51.2002 85.668 50.8402 85.368C50.4802 85.056 50.0362 84.9 49.5082 84.9C49.1242 84.9 48.7822 84.978 48.4822 85.134C48.1822 85.278 47.9182 85.476 47.6902 85.728C47.4742 85.98 47.2942 86.256 47.1502 86.556C47.0062 86.856 46.8982 87.156 46.8262 87.456C46.7542 87.756 46.7182 88.032 46.7182 88.284V88.5C46.7182 88.86 46.7782 89.232 46.8982 89.616C47.0302 90 47.2162 90.36 47.4562 90.696C47.6962 91.02 47.9902 91.284 48.3382 91.488C48.6862 91.692 49.0762 91.794 49.5082 91.794ZM58.191 93.234C57.687 93.234 57.231 93.138 56.823 92.946C56.415 92.742 56.091 92.448 55.851 92.064C55.611 91.668 55.491 91.17 55.491 90.57C55.491 90.126 55.569 89.736 55.725 89.4C55.893 89.064 56.145 88.776 56.481 88.536C56.829 88.296 57.273 88.098 57.813 87.942C58.353 87.786 59.013 87.654 59.793 87.546C60.237 87.486 60.597 87.426 60.873 87.366C61.161 87.306 61.371 87.21 61.503 87.078C61.635 86.934 61.701 86.724 61.701 86.448C61.701 85.992 61.545 85.608 61.233 85.296C60.921 84.984 60.429 84.828 59.757 84.828C59.409 84.828 59.055 84.888 58.695 85.008C58.335 85.128 58.017 85.332 57.741 85.62C57.477 85.896 57.309 86.286 57.237 86.79L55.725 86.286C55.821 85.854 55.977 85.464 56.193 85.116C56.421 84.768 56.709 84.474 57.057 84.234C57.405 83.982 57.807 83.79 58.263 83.658C58.731 83.526 59.247 83.46 59.811 83.46C60.591 83.46 61.239 83.592 61.755 83.856C62.283 84.12 62.673 84.528 62.925 85.08C63.189 85.62 63.321 86.316 63.321 87.168V89.238C63.321 89.61 63.327 90.018 63.339 90.462C63.363 90.894 63.393 91.332 63.429 91.776C63.465 92.208 63.501 92.616 63.537 93H62.025C61.989 92.616 61.953 92.232 61.917 91.848C61.893 91.464 61.875 91.08 61.863 90.696H61.629C61.449 91.14 61.209 91.554 60.909 91.938C60.609 92.322 60.231 92.634 59.775 92.874C59.331 93.114 58.803 93.234 58.191 93.234ZM58.677 91.902C58.941 91.902 59.205 91.86 59.469 91.776C59.745 91.692 60.015 91.554 60.279 91.362C60.555 91.17 60.813 90.924 61.053 90.624C61.305 90.324 61.527 89.964 61.719 89.544V87.744L62.187 87.834C61.995 88.026 61.737 88.17 61.413 88.266C61.101 88.362 60.753 88.44 60.369 88.5C59.985 88.56 59.601 88.626 59.217 88.698C58.833 88.758 58.479 88.854 58.155 88.986C57.843 89.106 57.591 89.28 57.399 89.508C57.207 89.736 57.111 90.048 57.111 90.444C57.111 90.924 57.255 91.29 57.543 91.542C57.831 91.782 58.209 91.902 58.677 91.902ZM69.5069 93.234C68.8589 93.234 68.2829 93.162 67.7789 93.018C67.2749 92.886 66.8549 92.694 66.5189 92.442C66.1829 92.178 65.9249 91.866 65.7449 91.506C65.5649 91.146 65.4689 90.75 65.4569 90.318L66.8429 89.958C66.8189 90.354 66.9149 90.702 67.1309 91.002C67.3589 91.29 67.6769 91.512 68.0849 91.668C68.5049 91.824 69.0089 91.902 69.5969 91.902C70.3049 91.902 70.8509 91.782 71.2349 91.542C71.6309 91.302 71.8289 90.972 71.8289 90.552C71.8289 90.216 71.7209 89.958 71.5049 89.778C71.2889 89.586 70.9889 89.436 70.6049 89.328C70.2329 89.208 69.7889 89.1 69.2729 89.004C68.8409 88.908 68.4089 88.8 67.9769 88.68C67.5449 88.56 67.1489 88.404 66.7889 88.212C66.4409 88.008 66.1589 87.744 65.9429 87.42C65.7269 87.096 65.6189 86.694 65.6189 86.214C65.6189 85.65 65.7689 85.164 66.0689 84.756C66.3689 84.348 66.7949 84.03 67.3469 83.802C67.8989 83.574 68.5589 83.46 69.3269 83.46C70.0949 83.46 70.7489 83.58 71.2889 83.82C71.8289 84.048 72.2549 84.372 72.5669 84.792C72.8789 85.212 73.0529 85.704 73.0889 86.268L71.6669 86.628C71.6549 86.232 71.5469 85.896 71.3429 85.62C71.1509 85.344 70.8749 85.14 70.5149 85.008C70.1549 84.864 69.7349 84.792 69.2549 84.792C68.6189 84.792 68.1149 84.912 67.7429 85.152C67.3709 85.392 67.1849 85.722 67.1849 86.142C67.1849 86.454 67.2929 86.706 67.5089 86.898C67.7369 87.09 68.0429 87.24 68.4269 87.348C68.8109 87.456 69.2369 87.564 69.7049 87.672C70.1849 87.768 70.6409 87.876 71.0729 87.996C71.5169 88.116 71.9129 88.272 72.2609 88.464C72.6089 88.656 72.8849 88.914 73.0889 89.238C73.2929 89.55 73.3949 89.952 73.3949 90.444C73.3949 91.056 73.2329 91.572 72.9089 91.992C72.5849 92.4 72.1289 92.712 71.5409 92.928C70.9649 93.132 70.2869 93.234 69.5069 93.234ZM79.627 93.234C78.895 93.234 78.247 93.126 77.683 92.91C77.131 92.682 76.663 92.358 76.279 91.938C75.895 91.518 75.607 91.02 75.415 90.444C75.223 89.868 75.127 89.22 75.127 88.5C75.127 87.768 75.223 87.096 75.415 86.484C75.607 85.872 75.889 85.338 76.261 84.882C76.633 84.426 77.089 84.078 77.629 83.838C78.169 83.586 78.787 83.46 79.483 83.46C80.095 83.46 80.653 83.562 81.157 83.766C81.661 83.97 82.087 84.288 82.435 84.72C82.795 85.14 83.065 85.674 83.245 86.322C83.425 86.958 83.497 87.708 83.461 88.572L76.153 88.626V87.51L82.471 87.456L81.913 88.212C81.973 87.456 81.901 86.832 81.697 86.34C81.493 85.848 81.199 85.476 80.815 85.224C80.443 84.972 79.999 84.846 79.483 84.846C78.931 84.846 78.445 84.99 78.025 85.278C77.605 85.566 77.281 85.98 77.053 86.52C76.837 87.06 76.729 87.714 76.729 88.482C76.729 89.586 76.975 90.432 77.467 91.02C77.959 91.596 78.691 91.884 79.663 91.884C80.035 91.884 80.359 91.842 80.635 91.758C80.923 91.662 81.163 91.536 81.355 91.38C81.559 91.212 81.721 91.02 81.841 90.804C81.973 90.588 82.075 90.354 82.147 90.102L83.587 90.444C83.479 90.876 83.311 91.266 83.083 91.614C82.867 91.95 82.591 92.238 82.255 92.478C81.931 92.718 81.553 92.904 81.121 93.036C80.689 93.168 80.191 93.234 79.627 93.234Z" fill="#F8F9FA"/>
<defs>
<linearGradient id="paint0_linear_2743_5689" x1="22.5709" y1="18.2622" x2="79.0337" y2="41.6625" gradientUnits="userSpaceOnUse">
<stop stop-color="white" stop-opacity="0.1"/>
<stop offset="0.1" stop-color="white" stop-opacity="0"/>
<stop offset="0.6" stop-color="white" stop-opacity="0"/>
<stop offset="1" stop-color="white" stop-opacity="0"/>
</linearGradient>
<clipPath id="clip0_2743_5689">
<rect width="72" height="72" fill="white" transform="translate(12)"/>
</clipPath>
</defs>
</svg>
