<svg width="96" height="98" viewBox="0 0 96 98" fill="none" xmlns="http://www.w3.org/2000/svg">
<g style="mix-blend-mode:luminosity" clip-path="url(#clip0_2743_5692)">
<g clip-path="url(#clip1_2743_5692)">
<path d="M48.0375 71.925C45.7875 71.925 43.62 71.025 41.97 69.45L14.475 41.955C12.825 40.305 12 38.2125 12 35.8875C12 33.5625 12.9 31.47 14.475 29.82L36.1275 8.1675L41.82 2.475C43.395 0.825 45.5625 0 47.8875 0C50.2125 0 52.305 0.9 53.955 2.55L81.45 30.045C83.1 31.695 83.925 33.7875 83.925 36.1125C83.925 38.4375 83.025 40.53 81.45 42.18L54.105 69.525C52.455 71.175 50.3625 72 48.0375 72V71.925Z" fill="#F8F9FA"/>
<path d="M78.19 33.1919L50.695 5.69687C49.12 4.12188 46.5775 4.12188 44.9275 5.69687L39.235 11.3894L46.5025 18.6569C48.1525 18.0569 50.095 18.5069 51.445 19.7819C52.795 21.1319 53.17 23.0819 52.57 24.7994L59.5375 31.7669C61.2625 31.1669 63.205 31.5419 64.555 32.8919C66.43 34.7669 66.43 37.8344 64.555 39.7094C62.68 41.5844 59.6125 41.5844 57.7375 39.7094C56.3125 38.2844 55.9375 36.1844 56.6875 34.4669L50.17 27.9494V45.1094C50.62 45.3344 51.07 45.6344 51.445 46.0094C53.32 47.8844 53.32 50.9519 51.445 52.8269C49.57 54.7019 46.5025 54.7019 44.6275 52.8269C42.7525 50.9519 42.7525 47.8844 44.6275 46.0094C45.0775 45.5594 45.6025 45.1844 46.2025 44.9594V27.6494C45.6025 27.4244 45.0775 27.0494 44.6275 26.5994C43.2025 25.1744 42.8275 23.0744 43.5775 21.3569L36.46 14.2394L17.65 33.0419C16.075 34.6169 16.075 37.1594 17.65 38.8094L45.145 66.3044C46.72 67.8794 49.2625 67.8794 50.9125 66.3044L78.2575 38.9594C79.8325 37.3844 79.8325 34.8419 78.2575 33.1919H78.1825H78.19Z" fill="#F05133"/>
</g>
</g>
<path d="M42.2732 93.234C41.3012 93.234 40.4312 93.012 39.6632 92.568C38.9072 92.112 38.3132 91.434 37.8812 90.534C37.4492 89.634 37.2332 88.494 37.2332 87.114C37.2332 86.142 37.3532 85.278 37.5932 84.522C37.8332 83.754 38.1812 83.1 38.6372 82.56C39.1052 82.02 39.6752 81.606 40.3472 81.318C41.0192 81.03 41.7992 80.886 42.6872 80.886C43.3472 80.886 43.9412 80.97 44.4692 81.138C45.0092 81.306 45.4772 81.546 45.8732 81.858C46.2692 82.17 46.5872 82.554 46.8272 83.01C47.0792 83.466 47.2352 83.982 47.2952 84.558L45.7112 85.008C45.6632 84.36 45.4892 83.844 45.1892 83.46C44.8892 83.064 44.5172 82.776 44.0732 82.596C43.6292 82.416 43.1552 82.326 42.6512 82.326C41.9192 82.326 41.2772 82.488 40.7252 82.812C40.1732 83.136 39.7412 83.652 39.4292 84.36C39.1172 85.056 38.9612 85.962 38.9612 87.078C38.9612 87.954 39.0572 88.692 39.2492 89.292C39.4412 89.892 39.6992 90.378 40.0232 90.75C40.3472 91.11 40.7252 91.374 41.1572 91.542C41.6012 91.698 42.0692 91.776 42.5612 91.776C43.1972 91.776 43.7432 91.656 44.1992 91.416C44.6552 91.176 45.0212 90.816 45.2972 90.336C45.5852 89.844 45.7652 89.226 45.8372 88.482H43.1192V87.168H47.4752V88.95V93H46.1252L46.4672 89.76H46.1972C46.0412 90.54 45.7952 91.188 45.4592 91.704C45.1352 92.208 44.7092 92.592 44.1812 92.856C43.6652 93.108 43.0292 93.234 42.2732 93.234ZM50.1431 93V83.694H51.7811V93H50.1431ZM50.9711 82.074C50.5871 82.074 50.2991 81.996 50.1071 81.84C49.9151 81.684 49.8191 81.45 49.8191 81.138C49.8191 80.826 49.9151 80.592 50.1071 80.436C50.2991 80.28 50.5811 80.202 50.9531 80.202C51.3371 80.202 51.6251 80.28 51.8171 80.436C52.0091 80.592 52.1051 80.826 52.1051 81.138C52.1051 81.438 52.0091 81.672 51.8171 81.84C51.6251 81.996 51.3431 82.074 50.9711 82.074ZM57.5231 93.18C56.6591 93.18 56.0171 92.946 55.5971 92.478C55.1771 92.01 54.9671 91.296 54.9671 90.336V85.062H53.5631L53.5811 83.694H54.4631C54.7631 83.694 54.9791 83.64 55.1111 83.532C55.2551 83.424 55.3391 83.244 55.3631 82.992L55.5431 81.588H56.5511V83.694H59.2331V85.08H56.5511V90.3C56.5511 90.78 56.6591 91.128 56.8751 91.344C57.1031 91.548 57.4271 91.65 57.8471 91.65C58.0751 91.65 58.3091 91.62 58.5491 91.56C58.8011 91.5 59.0471 91.38 59.2871 91.2V92.838C58.9391 92.97 58.6151 93.06 58.3151 93.108C58.0271 93.156 57.7631 93.18 57.5231 93.18Z" fill="#F8F9FA"/>
<defs>
<clipPath id="clip0_2743_5692">
<rect width="72" height="72" fill="white" transform="translate(12)"/>
</clipPath>
<clipPath id="clip1_2743_5692">
<rect width="72" height="72" fill="white" transform="translate(12)"/>
</clipPath>
</defs>
</svg>
