<svg width="96" height="98" viewBox="0 0 96 98" fill="none" xmlns="http://www.w3.org/2000/svg">
<g style="mix-blend-mode:luminosity" clip-path="url(#clip0_2743_5673)">
<path d="M48.1844 72C47.8094 72 47.3594 72 46.9844 71.85L24.3344 65.55C22.5344 65.025 21.1844 63.45 21.0344 61.65L16.0094 4.95C15.9344 3.675 16.3094 2.475 17.1344 1.5C17.9594 0.525 19.1594 0 20.4344 0H76.0094C77.2844 0 78.4844 0.525 79.3094 1.5C80.1344 2.475 80.5844 3.675 80.4344 4.95L75.4094 61.65C75.2594 63.525 73.9094 65.1 72.1094 65.55L49.3094 71.85C48.9344 71.925 48.4844 72 48.1094 72H48.1844Z" fill="#F8F9FA"/>
<path d="M25.5406 61.2L20.5156 4.5H76.0906L71.0656 61.2L48.2656 67.5" fill="#E44D26"/>
<path d="M48.2656 62.6945V9.14453H70.9906L66.6406 57.5195" fill="#F16529"/>
<path d="M30.7969 16.125H48.2719V23.1H38.4469L39.1219 30.225H48.3469V37.125H32.8219M33.0469 40.575H40.0219L40.5469 46.125L48.3469 48.225V55.5L34.0969 51.525" fill="#EBEBEB"/>
<path d="M65.6703 16.125H48.2703V23.1H65.0703M64.3953 30.15H48.2703V37.125H56.8203L55.9953 46.125L48.1953 48.225V55.425L62.4453 51.45" fill="#F8F9FA"/>
</g>
<path d="M33.6312 93V81.12H35.2872V93H33.6312ZM25.7472 93V81.12H27.4032V93H25.7472ZM26.5752 87.636V86.214H34.2972V87.636H26.5752ZM40.8883 93V81.12H42.5443V93H40.8883ZM37.2703 82.56V81.12H46.1623V82.56H37.2703ZM48.1593 93V81.12H50.7153L54.6573 91.272H54.7473L58.6713 81.12H61.1373V93H59.5713L59.6793 82.794H59.5353L55.4493 93H53.8293L49.7793 82.776H49.6353L49.7433 93H48.1593ZM64.2257 93V81.12H65.8817V93H64.2257ZM64.7657 93V91.56H71.4257V93H64.7657Z" fill="#F8F9FA"/>
<defs>
<clipPath id="clip0_2743_5673">
<rect width="72" height="72" fill="white" transform="translate(12)"/>
</clipPath>
</defs>
</svg>
