<svg width="96" height="98" viewBox="0 0 96 98" fill="none" xmlns="http://www.w3.org/2000/svg">
<g style="mix-blend-mode:luminosity" clip-path="url(#clip0_2743_5698)">
<path fill-rule="evenodd" clip-rule="evenodd" d="M72.5373 34.2128C71.1126 34.2128 69.6954 33.5378 68.8706 32.3378L63.3294 24.5452C62.3546 23.1952 62.2046 21.4027 62.9544 19.9027C63.2544 19.3026 63.6293 18.8526 64.1542 18.4776C62.9544 16.9776 61.1623 16.0776 59.1378 16.0776C57.1133 16.0776 53.8215 17.9526 52.9967 20.6452C52.6218 21.8452 51.8719 22.8202 50.8222 23.3452C50.1473 23.7202 49.4725 23.8702 48.7226 23.8702C47.9728 23.8702 47.8228 23.8702 47.373 23.6452C46.0982 23.2702 44.7485 22.9702 43.4063 22.8202C42.0566 22.6702 40.8569 21.9952 40.1146 20.9452C39.3723 19.8952 39.1398 18.4701 39.4397 17.2026C39.6647 16.2276 40.0396 15.3276 40.4145 14.4351C41.4643 12.0351 42.889 9.86757 44.756 7.99255C46.6306 6.11753 48.8726 4.62502 51.2721 3.65001C53.7465 2.60001 56.4384 2 59.2128 2C61.9872 2 64.6791 2.525 67.1535 3.57501C69.6279 4.62502 71.795 6.05003 73.6695 7.91755C75.5441 9.78507 77.0363 11.9601 78.011 14.3601C78.4609 15.3351 78.7609 16.3851 79.0608 17.4276C80.4105 17.6526 81.5353 18.5526 82.2026 19.7526C82.9524 21.2527 82.8775 23.0452 81.8277 24.3952L76.2864 32.1878C75.4616 33.3878 74.1119 34.0628 72.6198 34.0628L72.5448 34.2128H72.5373Z" fill="#F8F9FA"/>
<path fill-rule="evenodd" clip-rule="evenodd" d="M70.2843 69.7931C69.6095 69.7931 68.8597 69.6431 68.2598 69.2681C67.135 68.6681 66.3102 67.6181 65.9353 66.4256H51.0362C48.9367 66.4256 47.1446 65.0006 46.6947 62.9831C46.2448 60.9581 47.2195 58.8656 49.0941 57.9656C49.2441 57.9656 49.3191 57.8156 49.469 57.8156H49.619C51.3436 56.9905 52.8358 55.9405 54.2604 54.673C54.4104 54.523 54.6354 54.373 54.7853 54.148L55.3102 53.623C55.5352 53.398 55.7601 53.173 55.9101 52.948C56.7349 51.823 58.0846 51.223 59.4268 51.223H66.0178C66.3177 50.023 67.1425 48.973 68.3423 48.3805C69.0171 48.0805 69.692 47.8555 70.3668 47.8555C71.0417 47.8555 72.2414 48.1555 72.9912 48.6805L82.1242 55.198C83.3239 56.023 83.9987 57.373 83.9987 58.8656C83.9987 60.3581 83.3239 61.7081 82.1242 62.5331L72.9912 69.0506C72.2414 69.5756 71.2666 69.8756 70.3668 69.8756L70.2918 69.8006L70.2843 69.7931Z" fill="#F8F9FA"/>
<path fill-rule="evenodd" clip-rule="evenodd" d="M78.066 21.8503L72.5248 29.6428L66.9835 21.8503H70.0503C69.8254 16.0827 65.034 11.4402 59.1928 11.4402C53.3516 11.4402 50.0598 14.7327 48.7851 19.2328C47.2105 18.7078 45.4934 18.4078 43.8438 18.2578C44.0687 17.5077 44.2936 16.8327 44.5936 16.0827C45.4184 14.2077 46.5431 12.4902 48.0353 10.9902C49.46 9.56518 51.1771 8.36517 53.1267 7.62267C55.0762 6.79766 57.1682 6.34766 59.3428 6.34766C61.5173 6.34766 63.6093 6.79766 65.5589 7.62267C67.4334 8.44767 69.1505 9.57268 70.6502 10.9902C72.0749 12.4152 73.2746 14.1327 74.0919 16.0827C74.8418 17.8828 75.2917 19.8253 75.3666 21.8503H78.4335H78.0585H78.066Z" fill="#FF7F69"/>
<path fill-rule="evenodd" clip-rule="evenodd" d="M70.2797 65.294V61.9265H51.0391C51.189 61.9265 51.339 61.7765 51.414 61.7015C53.5135 60.7265 55.4556 59.3765 57.1052 57.809C57.3301 57.5839 57.5551 57.3589 57.78 57.2089C58.005 56.9839 58.2299 56.7589 58.4549 56.4589C58.7548 56.1589 58.9798 55.8589 59.2797 55.5589H70.2122V52.1914L79.3452 58.709L70.2122 65.2265L70.2872 65.3015L70.2797 65.294Z" fill="#7D65F5"/>
<path fill-rule="evenodd" clip-rule="evenodd" d="M16.5158 66.4915C14.0414 66.4915 12.0243 64.4665 12.0243 61.999V55.6314C12.0243 53.1564 14.0489 51.1389 16.5158 51.1389H18.1654L12.8491 43.7213C11.8744 42.3713 11.7244 40.5788 12.4742 39.0788C13.1491 37.7288 14.4988 36.8288 15.9909 36.6788C16.2909 34.7288 16.8907 32.8612 17.6406 31.0612C18.9902 27.9187 20.8573 25.1437 23.1818 22.7512C25.5813 20.3511 28.3481 18.4836 31.4899 17.2086C34.7067 15.8586 38.0809 15.1836 41.5977 15.1836C45.1144 15.1836 42.8724 15.1836 43.6222 15.2586C45.7217 15.4086 47.7388 15.8586 49.6883 16.4586C50.5131 16.6836 51.113 16.9836 51.7879 17.2836C54.8547 18.5586 57.629 20.4261 60.021 22.8262C62.413 25.2262 64.2875 27.9937 65.5622 31.1362C66.9119 34.3538 67.5868 37.7288 67.5868 41.2463C67.5868 44.7638 66.9119 48.1389 65.5622 51.3564C64.4375 54.1239 62.7954 56.5989 60.7708 58.774C60.7708 58.774 60.021 59.599 59.946 59.599C59.796 59.749 59.2712 60.274 59.1962 60.349C57.2466 62.149 55.1546 63.5665 52.7551 64.6915C52.4552 64.8415 52.1553 64.9915 51.7804 65.1415H51.6304C49.4559 66.0415 47.1389 66.5665 44.6645 66.5665H16.5158V66.4915ZM42.8049 51.1389C48.2711 51.1389 52.8376 46.7214 52.9126 41.2538V41.1038C52.9126 34.8863 47.8962 29.8687 41.6801 29.8687C35.464 29.8687 32.9221 32.7862 31.1975 36.9113C32.1723 37.2863 33.0721 38.0363 33.522 39.0113C34.2718 40.5113 34.1968 42.3038 33.1471 43.6538L27.8308 51.0714H42.7299L42.8049 51.1464V51.1389Z" fill="#F8F9FA"/>
<path fill-rule="evenodd" clip-rule="evenodd" d="M63.1779 41.1014C63.1779 44.019 62.5781 46.794 61.4533 49.4865C60.4785 51.7365 59.1288 53.829 57.4867 55.629C57.2618 55.854 57.0368 56.0791 56.8119 56.3041L56.212 56.9041C54.6373 58.4041 52.7703 59.6041 50.8207 60.5716C50.5208 60.7216 50.2958 60.7966 49.9959 60.9466C48.3463 61.6216 46.6292 61.9966 44.8296 61.9966H16.5234V55.629H42.805C50.7457 55.629 57.2543 49.2615 57.4042 41.3264V41.1014C57.4042 32.4164 50.3633 25.3738 41.6803 25.3738C32.9972 25.3738 25.9563 32.4164 25.9563 41.1014H29.623L23.107 50.2365L16.5909 41.1014H20.2576C20.2576 38.1839 20.8575 35.4089 21.9822 32.7164C23.107 30.1663 24.6066 27.8488 26.6237 25.8988C28.5732 23.9488 30.8902 22.3813 33.4396 21.2563C36.064 20.1313 38.9059 19.5312 41.8227 19.5312C44.7396 19.5312 42.9475 19.5312 43.5473 19.5312C45.272 19.6813 46.9141 19.9813 48.4887 20.5063C49.0886 20.7313 49.6135 20.8813 50.2133 21.1813C52.7628 22.3063 55.0797 23.8063 57.0293 25.8238C58.9789 27.7738 60.546 30.0913 61.6708 32.6414C62.7955 35.2664 63.3954 38.1089 63.3954 41.0264L63.1704 41.1014H63.1779Z" fill="#F565CB"/>
</g>
<path d="M26.082 93.234C25.29 93.234 24.594 93.15 23.994 92.982C23.406 92.814 22.908 92.568 22.5 92.244C22.104 91.908 21.81 91.5 21.618 91.02C21.426 90.54 21.342 89.982 21.366 89.346L22.86 89.022C22.812 89.646 22.914 90.168 23.166 90.588C23.418 91.008 23.802 91.326 24.318 91.542C24.834 91.746 25.44 91.848 26.136 91.848C26.808 91.848 27.378 91.764 27.846 91.596C28.314 91.428 28.662 91.194 28.89 90.894C29.13 90.594 29.25 90.252 29.25 89.868C29.25 89.436 29.112 89.094 28.836 88.842C28.56 88.59 28.188 88.398 27.72 88.266C27.264 88.122 26.754 87.99 26.19 87.87C25.638 87.75 25.086 87.612 24.534 87.456C23.982 87.3 23.484 87.102 23.04 86.862C22.608 86.61 22.254 86.286 21.978 85.89C21.714 85.482 21.582 84.966 21.582 84.342C21.582 83.634 21.756 83.022 22.104 82.506C22.464 81.99 22.968 81.594 23.616 81.318C24.264 81.03 25.026 80.886 25.902 80.886C26.766 80.886 27.534 81.024 28.206 81.3C28.89 81.576 29.43 81.984 29.826 82.524C30.222 83.052 30.432 83.706 30.456 84.486L28.908 84.864C28.908 84.432 28.83 84.054 28.674 83.73C28.53 83.394 28.326 83.124 28.062 82.92C27.798 82.704 27.48 82.542 27.108 82.434C26.736 82.314 26.328 82.254 25.884 82.254C25.344 82.254 24.87 82.338 24.462 82.506C24.054 82.674 23.736 82.902 23.508 83.19C23.28 83.478 23.166 83.82 23.166 84.216C23.166 84.684 23.328 85.056 23.652 85.332C23.988 85.596 24.42 85.806 24.948 85.962C25.476 86.118 26.04 86.262 26.64 86.394C27.156 86.502 27.66 86.634 28.152 86.79C28.656 86.934 29.112 87.132 29.52 87.384C29.928 87.624 30.252 87.942 30.492 88.338C30.732 88.734 30.852 89.238 30.852 89.85C30.852 90.534 30.672 91.128 30.312 91.632C29.964 92.136 29.436 92.532 28.728 92.82C28.02 93.096 27.138 93.234 26.082 93.234ZM37.2198 93.234C36.4038 93.234 35.7078 93.102 35.1318 92.838C34.5678 92.574 34.1058 92.22 33.7458 91.776C33.3978 91.332 33.1398 90.822 32.9718 90.246C32.8158 89.67 32.7378 89.07 32.7378 88.446C32.7378 87.762 32.8278 87.12 33.0078 86.52C33.1878 85.92 33.4578 85.392 33.8178 84.936C34.1898 84.468 34.6458 84.108 35.1858 83.856C35.7378 83.592 36.3798 83.46 37.1118 83.46C37.8198 83.46 38.4438 83.586 38.9838 83.838C39.5238 84.078 39.9618 84.42 40.2978 84.864C40.6458 85.308 40.8678 85.836 40.9638 86.448L39.3978 86.88C39.3738 86.544 39.2718 86.22 39.0918 85.908C38.9238 85.596 38.6718 85.344 38.3358 85.152C37.9998 84.948 37.5858 84.846 37.0938 84.846C36.6258 84.846 36.2238 84.936 35.8878 85.116C35.5638 85.296 35.2878 85.548 35.0598 85.872C34.8438 86.196 34.6758 86.574 34.5558 87.006C34.4478 87.438 34.3938 87.906 34.3938 88.41C34.3938 89.106 34.4898 89.712 34.6818 90.228C34.8858 90.744 35.1978 91.146 35.6178 91.434C36.0378 91.722 36.5778 91.866 37.2378 91.866C37.7298 91.866 38.1498 91.782 38.4978 91.614C38.8458 91.434 39.1218 91.188 39.3258 90.876C39.5298 90.552 39.6618 90.174 39.7218 89.742L41.2338 90.084C41.1498 90.6 40.9938 91.056 40.7658 91.452C40.5378 91.848 40.2498 92.178 39.9018 92.442C39.5538 92.694 39.1518 92.886 38.6958 93.018C38.2518 93.162 37.7598 93.234 37.2198 93.234ZM43.1027 93V87.96V83.694H44.5787L44.4347 86.934H44.7407C44.8487 86.226 45.0167 85.614 45.2447 85.098C45.4727 84.582 45.7727 84.18 46.1447 83.892C46.5287 83.604 47.0027 83.46 47.5667 83.46C47.6867 83.46 47.8247 83.472 47.9807 83.496C48.1367 83.508 48.3167 83.55 48.5207 83.622L48.4307 85.332C48.2507 85.26 48.0707 85.212 47.8907 85.188C47.7107 85.152 47.5367 85.134 47.3687 85.134C46.9007 85.134 46.4927 85.284 46.1447 85.584C45.8087 85.884 45.5267 86.292 45.2987 86.808C45.0707 87.312 44.8847 87.882 44.7407 88.518V93H43.1027ZM53.368 93.234C52.336 93.234 51.556 92.874 51.028 92.154C50.5 91.434 50.236 90.36 50.236 88.932V83.694H51.892V88.788C51.892 89.796 52.048 90.546 52.36 91.038C52.672 91.53 53.164 91.776 53.836 91.776C54.208 91.776 54.538 91.686 54.826 91.506C55.126 91.326 55.39 91.068 55.618 90.732C55.846 90.396 56.032 90 56.176 89.544C56.32 89.076 56.416 88.572 56.464 88.032V83.694H58.102V89.112V93H56.644L56.788 90.012H56.518C56.362 90.756 56.14 91.368 55.852 91.848C55.576 92.316 55.228 92.664 54.808 92.892C54.388 93.12 53.908 93.234 53.368 93.234ZM60.9445 93V87.24V83.694H62.4025L62.2405 86.646H62.5465C62.7025 85.938 62.9125 85.35 63.1765 84.882C63.4405 84.402 63.7645 84.048 64.1485 83.82C64.5445 83.58 64.9945 83.46 65.4985 83.46C66.0985 83.46 66.5905 83.61 66.9745 83.91C67.3585 84.198 67.6405 84.576 67.8205 85.044C68.0125 85.512 68.1085 86.028 68.1085 86.592H68.3965C68.5285 85.92 68.7325 85.35 69.0085 84.882C69.2845 84.414 69.6265 84.06 70.0345 83.82C70.4425 83.58 70.9105 83.46 71.4385 83.46C71.9185 83.46 72.3385 83.556 72.6985 83.748C73.0585 83.94 73.3645 84.228 73.6165 84.612C73.8685 84.984 74.0545 85.446 74.1745 85.998C74.2945 86.55 74.3545 87.186 74.3545 87.906V93H72.7165V88.122C72.7165 87.414 72.6505 86.826 72.5185 86.358C72.3865 85.878 72.1885 85.524 71.9245 85.296C71.6725 85.056 71.3485 84.936 70.9525 84.936C70.5085 84.936 70.1065 85.092 69.7465 85.404C69.3985 85.704 69.1105 86.13 68.8825 86.682C68.6665 87.222 68.5225 87.84 68.4505 88.536V93H66.8485V88.284C66.8485 87.54 66.7825 86.922 66.6505 86.43C66.5185 85.938 66.3205 85.566 66.0565 85.314C65.8045 85.062 65.4745 84.936 65.0665 84.936C64.5865 84.936 64.1725 85.104 63.8245 85.44C63.4765 85.764 63.1945 86.202 62.9785 86.754C62.7745 87.306 62.6425 87.924 62.5825 88.608V93H60.9445Z" fill="#F8F9FA"/>
<defs>
<clipPath id="clip0_2743_5698">
<rect width="72" height="72" fill="white" transform="translate(12)"/>
</clipPath>
</defs>
</svg>
